<?xml version="1.0" encoding="utf-8"?>
<!-- Generator: Adobe Illustrator 15.0.0, SVG Export Plug-In . SVG Version: 6.00 Build 0)  -->
<!DOCTYPE svg PUBLIC "-//W3C//DTD SVG 1.1//EN" "http://www.w3.org/Graphics/SVG/1.1/DTD/svg11.dtd">
<svg version="1.1" id="Layer_1" xmlns="http://www.w3.org/2000/svg" xmlns:xlink="http://www.w3.org/1999/xlink" x="0px" y="0px"
	 width="257.753px" height="153.734px" viewBox="0 0 257.753 153.734" enable-background="new 0 0 257.753 153.734"
	 xml:space="preserve">
<path fill="#EEE6B2" d="M257.753,153.734H0V0h242.753c8.283,0,15,6.717,15,15.001V153.734z"/>
<polygon fill="#C3B42F" points="31.85,116.817 27.849,120.814 26.479,119.442 29.106,116.816 26.479,114.189 26.476,114.189 
	27.849,112.816 31.85,116.817 "/>
<g>
	<path fill="#C3B42F" d="M25.535,41.394c0.04-0.746,0.184-1.45,0.431-2.109c0.246-0.66,0.609-1.233,1.09-1.721
		c0.479-0.486,1.08-0.873,1.8-1.159c0.72-0.287,1.573-0.431,2.561-0.431c0.973,0,1.819,0.141,2.54,0.42
		c0.72,0.28,1.319,0.667,1.8,1.16c0.479,0.493,0.847,1.067,1.1,1.72c0.253,0.654,0.4,1.36,0.44,2.12
		c0.013,0.254,0.022,0.534,0.029,0.84c0.007,0.308,0.011,0.624,0.011,0.95c0,0.327-0.004,0.644-0.011,0.95s-0.017,0.587-0.029,0.84
		c-0.04,0.72-0.174,1.4-0.4,2.04c-0.227,0.641-0.566,1.2-1.02,1.68l1.5,2.16c0.04,0.066,0.06,0.127,0.06,0.181
		c0.013,0.133-0.023,0.239-0.11,0.319s-0.189,0.12-0.31,0.12h-1.9c-0.239-0.014-0.417-0.08-0.529-0.2
		c-0.114-0.119-0.204-0.22-0.271-0.3l-0.64-0.92c-0.334,0.107-0.688,0.187-1.061,0.24c-0.373,0.053-0.773,0.08-1.199,0.08
		c-0.987,0-1.841-0.141-2.561-0.42c-0.72-0.28-1.32-0.663-1.8-1.15c-0.48-0.486-0.844-1.06-1.09-1.72
		c-0.247-0.66-0.391-1.363-0.431-2.11c-0.013-0.253-0.023-0.533-0.029-0.84c-0.007-0.307-0.011-0.623-0.011-0.95
		c0-0.326,0.004-0.643,0.011-0.95C25.512,41.928,25.522,41.648,25.535,41.394z M34.596,41.495c-0.054-0.96-0.363-1.703-0.93-2.23
		c-0.567-0.526-1.317-0.79-2.25-0.79c-0.934,0-1.684,0.264-2.25,0.79c-0.567,0.527-0.877,1.271-0.931,2.23
		c-0.026,0.507-0.04,1.069-0.04,1.689s0.014,1.184,0.04,1.69c0.054,0.96,0.363,1.7,0.931,2.22c0.566,0.521,1.316,0.78,2.25,0.78
		c0.933,0,1.683-0.26,2.25-0.78c0.566-0.52,0.876-1.26,0.93-2.22c0.026-0.507,0.04-1.07,0.04-1.69S34.622,42.001,34.596,41.495z"/>
	<path fill="#C3B42F" d="M39.676,40.314c0-0.146,0.053-0.272,0.16-0.38c0.106-0.106,0.232-0.16,0.38-0.16h1.52
		c0.146,0,0.273,0.054,0.38,0.16c0.106,0.107,0.16,0.233,0.16,0.38v5.08c0,0.8,0.17,1.44,0.51,1.92
		c0.341,0.48,0.896,0.721,1.67,0.721c0.707,0,1.247-0.24,1.62-0.721c0.373-0.479,0.561-1.12,0.561-1.92v-5.08
		c0-0.146,0.053-0.272,0.16-0.38c0.106-0.106,0.232-0.16,0.38-0.16h1.52c0.146,0,0.273,0.054,0.38,0.16
		c0.106,0.107,0.16,0.233,0.16,0.38v9.32c0,0.146-0.054,0.273-0.16,0.38c-0.106,0.107-0.233,0.16-0.38,0.16h-1.52
		c-0.147,0-0.273-0.053-0.38-0.16c-0.107-0.106-0.16-0.233-0.16-0.38v-0.46c-0.307,0.307-0.688,0.583-1.141,0.83
		c-0.453,0.246-1,0.37-1.64,0.37c-0.813,0-1.487-0.127-2.02-0.38c-0.534-0.254-0.96-0.594-1.28-1.021s-0.547-0.923-0.68-1.49
		c-0.134-0.566-0.2-1.163-0.2-1.79V40.314z"/>
	<path fill="#C3B42F" d="M51.476,44.974c0-0.746,0.112-1.45,0.34-2.109c0.227-0.66,0.553-1.233,0.979-1.721
		c0.427-0.486,0.943-0.87,1.551-1.149c0.606-0.28,1.282-0.42,2.029-0.42s1.424,0.137,2.03,0.409c0.606,0.273,1.123,0.641,1.55,1.101
		s0.757,1,0.99,1.62s0.35,1.27,0.35,1.95v0.899c0,0.147-0.053,0.273-0.16,0.38c-0.106,0.107-0.233,0.16-0.38,0.16h-6.68
		c0,0.307,0.063,0.577,0.19,0.811c0.126,0.233,0.296,0.43,0.51,0.59c0.213,0.16,0.46,0.279,0.74,0.359
		c0.279,0.08,0.566,0.12,0.859,0.12c0.427,0,0.773-0.043,1.04-0.13s0.486-0.196,0.66-0.33c0.146-0.106,0.267-0.18,0.36-0.22
		c0.093-0.04,0.22-0.061,0.38-0.061h1.6c0.146,0,0.276,0.054,0.391,0.16c0.112,0.107,0.163,0.233,0.149,0.38
		c-0.014,0.188-0.117,0.428-0.31,0.721c-0.193,0.293-0.483,0.58-0.87,0.859c-0.387,0.28-0.863,0.521-1.43,0.721
		c-0.567,0.199-1.224,0.3-1.971,0.3s-1.423-0.13-2.029-0.391c-0.607-0.26-1.124-0.63-1.551-1.109c-0.427-0.48-0.753-1.05-0.979-1.71
		C51.588,46.504,51.476,45.774,51.476,44.974z M56.375,41.974c-0.387,0-0.717,0.057-0.99,0.17s-0.503,0.261-0.689,0.44
		s-0.33,0.38-0.43,0.6c-0.101,0.221-0.164,0.431-0.19,0.63h4.521c-0.027-0.199-0.077-0.409-0.15-0.63
		c-0.073-0.22-0.193-0.42-0.36-0.6s-0.387-0.327-0.66-0.44S56.802,41.974,56.375,41.974z M57.056,35.655
		c0.146-0.174,0.27-0.28,0.369-0.32c0.101-0.04,0.224-0.061,0.37-0.061h1.9c0.253,0,0.38,0.134,0.38,0.4
		c0,0.094-0.033,0.174-0.1,0.24l-2.46,2.02c-0.107,0.094-0.221,0.174-0.341,0.24c-0.119,0.066-0.286,0.1-0.5,0.1h-1.1
		c-0.214,0-0.32-0.106-0.32-0.319c0-0.08,0.033-0.167,0.101-0.261L57.056,35.655z"/>
	<path fill="#C3B42F" d="M67.516,44.974c0-0.746,0.112-1.45,0.34-2.109c0.227-0.66,0.553-1.233,0.979-1.721
		c0.427-0.486,0.943-0.87,1.551-1.149c0.606-0.28,1.282-0.42,2.029-0.42s1.424,0.137,2.03,0.409c0.606,0.273,1.123,0.641,1.55,1.101
		s0.757,1,0.99,1.62s0.35,1.27,0.35,1.95v0.899c0,0.147-0.053,0.273-0.16,0.38c-0.106,0.107-0.233,0.16-0.38,0.16h-6.68
		c0,0.307,0.063,0.577,0.19,0.811c0.126,0.233,0.296,0.43,0.51,0.59c0.213,0.16,0.46,0.279,0.74,0.359
		c0.279,0.08,0.566,0.12,0.859,0.12c0.427,0,0.773-0.043,1.04-0.13s0.486-0.196,0.66-0.33c0.146-0.106,0.267-0.18,0.36-0.22
		c0.093-0.04,0.22-0.061,0.38-0.061h1.6c0.146,0,0.276,0.054,0.391,0.16c0.112,0.107,0.163,0.233,0.149,0.38
		c-0.014,0.188-0.117,0.428-0.31,0.721c-0.193,0.293-0.483,0.58-0.87,0.859c-0.387,0.28-0.863,0.521-1.43,0.721
		c-0.567,0.199-1.224,0.3-1.971,0.3s-1.423-0.13-2.029-0.391c-0.607-0.26-1.124-0.63-1.551-1.109c-0.427-0.48-0.753-1.05-0.979-1.71
		C67.628,46.504,67.516,45.774,67.516,44.974z M72.415,41.974c-0.387,0-0.717,0.057-0.99,0.17s-0.503,0.261-0.689,0.44
		s-0.33,0.38-0.43,0.6c-0.101,0.221-0.164,0.431-0.19,0.63h4.521c-0.027-0.199-0.077-0.409-0.15-0.63
		c-0.073-0.22-0.193-0.42-0.36-0.6s-0.387-0.327-0.66-0.44S72.842,41.974,72.415,41.974z"/>
	<path fill="#C3B42F" d="M85.175,47.194c0-0.146-0.047-0.266-0.14-0.359c-0.094-0.094-0.257-0.18-0.49-0.26s-0.544-0.16-0.93-0.24
		c-0.388-0.08-0.881-0.187-1.48-0.32c-0.587-0.133-1.073-0.3-1.46-0.5s-0.697-0.433-0.93-0.7c-0.233-0.267-0.397-0.569-0.49-0.909
		c-0.094-0.341-0.14-0.711-0.14-1.11c0-0.4,0.093-0.793,0.279-1.18s0.457-0.73,0.811-1.03c0.353-0.3,0.783-0.543,1.29-0.73
		c0.506-0.187,1.086-0.279,1.739-0.279s1.237,0.073,1.75,0.22c0.514,0.146,0.95,0.34,1.311,0.58c0.359,0.24,0.64,0.517,0.84,0.83
		s0.313,0.63,0.34,0.95c0.014,0.146-0.037,0.273-0.149,0.38c-0.114,0.106-0.244,0.159-0.391,0.159h-1.54
		c-0.2,0-0.35-0.036-0.45-0.109c-0.1-0.073-0.21-0.156-0.329-0.25c-0.12-0.094-0.28-0.177-0.48-0.25s-0.5-0.11-0.9-0.11
		c-0.399,0-0.753,0.061-1.06,0.181c-0.307,0.119-0.46,0.333-0.46,0.64c0,0.146,0.036,0.27,0.11,0.37
		c0.072,0.1,0.213,0.189,0.42,0.27c0.206,0.08,0.493,0.164,0.859,0.25c0.367,0.087,0.844,0.19,1.431,0.311
		c1.187,0.253,2.022,0.649,2.51,1.189c0.486,0.54,0.729,1.21,0.729,2.01c0,0.4-0.1,0.79-0.3,1.171c-0.2,0.38-0.49,0.72-0.87,1.02
		s-0.847,0.54-1.399,0.72c-0.554,0.181-1.177,0.271-1.87,0.271c-0.707,0-1.33-0.084-1.87-0.25c-0.54-0.167-0.997-0.384-1.37-0.65
		s-0.66-0.566-0.86-0.899c-0.199-0.334-0.307-0.66-0.319-0.98c-0.014-0.146,0.036-0.273,0.149-0.38s0.243-0.16,0.391-0.16h1.54
		c0.199,0,0.35,0.047,0.449,0.14c0.101,0.094,0.214,0.2,0.341,0.32c0.126,0.12,0.303,0.227,0.529,0.32s0.566,0.14,1.021,0.14
		c0.2,0,0.406-0.013,0.62-0.04c0.213-0.026,0.41-0.069,0.59-0.13c0.18-0.06,0.33-0.14,0.45-0.24
		C85.115,47.464,85.175,47.341,85.175,47.194z"/>
	<path fill="#C3B42F" d="M93.955,44.974c0-0.746,0.112-1.45,0.34-2.109c0.227-0.66,0.553-1.233,0.979-1.721
		c0.427-0.486,0.943-0.87,1.551-1.149c0.606-0.28,1.282-0.42,2.029-0.42s1.424,0.137,2.03,0.409c0.606,0.273,1.123,0.641,1.55,1.101
		s0.757,1,0.99,1.62s0.35,1.27,0.35,1.95v0.899c0,0.147-0.053,0.273-0.16,0.38c-0.106,0.107-0.233,0.16-0.38,0.16h-6.68
		c0,0.307,0.063,0.577,0.19,0.811c0.126,0.233,0.296,0.43,0.51,0.59c0.213,0.16,0.46,0.279,0.74,0.359
		c0.279,0.08,0.566,0.12,0.859,0.12c0.427,0,0.773-0.043,1.04-0.13s0.486-0.196,0.66-0.33c0.146-0.106,0.267-0.18,0.36-0.22
		c0.093-0.04,0.22-0.061,0.38-0.061h1.6c0.146,0,0.276,0.054,0.391,0.16c0.112,0.107,0.163,0.233,0.149,0.38
		c-0.014,0.188-0.117,0.428-0.31,0.721c-0.193,0.293-0.483,0.58-0.87,0.859c-0.387,0.28-0.863,0.521-1.43,0.721
		c-0.567,0.199-1.224,0.3-1.971,0.3s-1.423-0.13-2.029-0.391c-0.607-0.26-1.124-0.63-1.551-1.109c-0.427-0.48-0.753-1.05-0.979-1.71
		C94.067,46.504,93.955,45.774,93.955,44.974z M98.854,41.974c-0.387,0-0.717,0.057-0.99,0.17s-0.503,0.261-0.689,0.44
		s-0.33,0.38-0.43,0.6c-0.101,0.221-0.164,0.431-0.19,0.63h4.521c-0.027-0.199-0.077-0.409-0.15-0.63
		c-0.073-0.22-0.193-0.42-0.36-0.6s-0.387-0.327-0.66-0.44S99.281,41.974,98.854,41.974z"/>
	<path fill="#C3B42F" d="M108.555,49.634c0,0.146-0.054,0.273-0.16,0.38c-0.107,0.107-0.233,0.16-0.38,0.16h-1.521
		c-0.146,0-0.273-0.053-0.38-0.16c-0.106-0.106-0.16-0.233-0.16-0.38v-13.12c0-0.146,0.054-0.273,0.16-0.38s0.233-0.16,0.38-0.16
		h1.521c0.146,0,0.272,0.054,0.38,0.16c0.106,0.106,0.16,0.233,0.16,0.38V49.634z"/>
	<path fill="#C3B42F" d="M32.596,63.314l3.8-6.6c0.053-0.066,0.144-0.173,0.271-0.32c0.126-0.146,0.322-0.22,0.59-0.22h1.359
		c0.146,0,0.273,0.054,0.38,0.16c0.107,0.106,0.16,0.233,0.16,0.38v12.92c0,0.146-0.053,0.273-0.16,0.38
		c-0.106,0.107-0.233,0.16-0.38,0.16h-1.62c-0.146,0-0.273-0.053-0.38-0.16c-0.106-0.106-0.159-0.233-0.159-0.38v-7.82l-2.601,4.5
		c-0.066,0.107-0.16,0.217-0.28,0.33c-0.119,0.113-0.273,0.17-0.46,0.17h-1.04c-0.187,0-0.34-0.057-0.46-0.17
		s-0.213-0.223-0.279-0.33l-2.601-4.5v7.82c0,0.146-0.053,0.273-0.16,0.38c-0.106,0.107-0.233,0.16-0.38,0.16h-1.62
		c-0.146,0-0.273-0.053-0.38-0.16c-0.106-0.106-0.16-0.233-0.16-0.38v-12.92c0-0.146,0.054-0.273,0.16-0.38s0.233-0.16,0.38-0.16
		h1.36c0.267,0,0.463,0.073,0.59,0.22c0.127,0.147,0.217,0.254,0.271,0.32L32.596,63.314z"/>
	<path fill="#C3B42F" d="M44.256,55.974c0.146,0,0.273,0.054,0.38,0.16s0.16,0.233,0.16,0.38v1.561c0,0.146-0.054,0.273-0.16,0.38
		s-0.233,0.16-0.38,0.16h-1.72c-0.147,0-0.273-0.054-0.38-0.16c-0.107-0.106-0.16-0.233-0.16-0.38v-1.561
		c0-0.146,0.053-0.273,0.16-0.38c0.106-0.106,0.232-0.16,0.38-0.16H44.256z M44.696,69.634c0,0.146-0.054,0.273-0.16,0.38
		c-0.107,0.107-0.233,0.16-0.38,0.16h-1.521c-0.146,0-0.273-0.053-0.38-0.16c-0.106-0.106-0.16-0.233-0.16-0.38v-9.32
		c0-0.146,0.054-0.272,0.16-0.38c0.106-0.106,0.233-0.16,0.38-0.16h1.521c0.146,0,0.272,0.054,0.38,0.16
		c0.106,0.107,0.16,0.233,0.16,0.38V69.634z"/>
	<path fill="#C3B42F" d="M57.215,69.634c0,0.146-0.053,0.273-0.159,0.38c-0.107,0.107-0.234,0.16-0.381,0.16h-1.52
		c-0.146,0-0.273-0.053-0.38-0.16c-0.107-0.106-0.16-0.233-0.16-0.38v-5.08c0-0.8-0.187-1.439-0.56-1.92
		c-0.374-0.479-0.947-0.72-1.721-0.72c-0.707,0-1.264,0.24-1.67,0.72c-0.406,0.48-0.609,1.12-0.609,1.92v5.08
		c0,0.146-0.054,0.273-0.16,0.38c-0.107,0.107-0.233,0.16-0.38,0.16h-1.521c-0.146,0-0.273-0.053-0.38-0.16
		c-0.106-0.106-0.16-0.233-0.16-0.38v-9.32c0-0.146,0.054-0.272,0.16-0.38c0.106-0.106,0.233-0.16,0.38-0.16h1.521
		c0.146,0,0.272,0.054,0.38,0.16c0.106,0.107,0.16,0.233,0.16,0.38v0.46c0.346-0.346,0.753-0.633,1.22-0.859s1.02-0.34,1.66-0.34
		c0.812,0,1.493,0.127,2.04,0.38c0.546,0.253,0.986,0.593,1.319,1.02s0.57,0.924,0.71,1.49c0.141,0.566,0.21,1.163,0.21,1.79V69.634
		z"/>
	<path fill="#C3B42F" d="M63.875,59.575c0.413,0,0.783,0.04,1.11,0.119c0.326,0.08,0.613,0.181,0.859,0.301
		c0.247,0.12,0.457,0.25,0.631,0.39c0.173,0.14,0.312,0.271,0.42,0.39v-4.26c0-0.146,0.053-0.273,0.159-0.38
		c0.107-0.106,0.233-0.16,0.381-0.16h1.52c0.146,0,0.273,0.054,0.38,0.16s0.16,0.233,0.16,0.38v13.12c0,0.146-0.054,0.273-0.16,0.38
		c-0.106,0.107-0.233,0.16-0.38,0.16h-1.52c-0.147,0-0.273-0.053-0.381-0.16c-0.106-0.106-0.159-0.233-0.159-0.38v-0.46
		c-0.107,0.12-0.247,0.25-0.42,0.39c-0.174,0.141-0.384,0.271-0.631,0.391c-0.246,0.12-0.533,0.22-0.859,0.3
		c-0.327,0.08-0.697,0.12-1.11,0.12c-0.667,0-1.27-0.13-1.81-0.391c-0.54-0.26-1-0.606-1.38-1.04c-0.381-0.433-0.681-0.933-0.9-1.5
		c-0.22-0.566-0.344-1.156-0.37-1.77c-0.014-0.2-0.02-0.434-0.02-0.7s0.006-0.5,0.02-0.7c0.026-0.612,0.15-1.203,0.37-1.77
		s0.52-1.066,0.9-1.5c0.38-0.434,0.84-0.78,1.38-1.04S63.208,59.575,63.875,59.575z M62.015,64.415c-0.039,0.373-0.039,0.747,0,1.12
		c0.08,0.866,0.347,1.489,0.801,1.87c0.453,0.38,1.006,0.569,1.66,0.569c0.652,0,1.203-0.193,1.649-0.58s0.703-0.939,0.771-1.66
		c0.026-0.199,0.04-0.453,0.04-0.76s-0.014-0.56-0.04-0.76c-0.067-0.693-0.324-1.24-0.771-1.64c-0.446-0.4-0.997-0.601-1.649-0.601
		c-0.654,0-1.207,0.19-1.66,0.57C62.361,62.924,62.095,63.547,62.015,64.415z"/>
	<path fill="#C3B42F" d="M75.775,59.774h2.779c0.146,0,0.273,0.054,0.38,0.16c0.107,0.107,0.16,0.233,0.16,0.38v1.32
		c0,0.146-0.053,0.273-0.16,0.38c-0.106,0.107-0.233,0.16-0.38,0.16h-2.779v7.46c0,0.146-0.054,0.273-0.16,0.38
		c-0.107,0.107-0.233,0.16-0.38,0.16h-1.521c-0.146,0-0.273-0.053-0.38-0.16c-0.106-0.106-0.16-0.233-0.16-0.38v-7.46h-1.319
		c-0.147,0-0.273-0.053-0.381-0.16c-0.106-0.106-0.159-0.233-0.159-0.38v-1.32c0-0.146,0.053-0.272,0.159-0.38
		c0.107-0.106,0.233-0.16,0.381-0.16h1.319v-0.899c0-0.641,0.094-1.184,0.28-1.63c0.187-0.447,0.453-0.811,0.8-1.09
		c0.347-0.28,0.764-0.48,1.25-0.601s1.03-0.18,1.63-0.18h1.62c0.146,0,0.273,0.054,0.38,0.16s0.16,0.233,0.16,0.38v1.319
		c0,0.147-0.054,0.273-0.16,0.381c-0.106,0.106-0.233,0.159-0.38,0.159h-1.42c-0.507,0-0.894,0.091-1.16,0.271
		s-0.399,0.523-0.399,1.03V59.774z"/>
	<path fill="#C3B42F" d="M80.695,60.314c0-0.146,0.053-0.272,0.16-0.38c0.106-0.106,0.232-0.16,0.38-0.16h1.52
		c0.146,0,0.273,0.054,0.38,0.16c0.106,0.107,0.16,0.233,0.16,0.38v5.08c0,0.8,0.17,1.44,0.51,1.92
		c0.341,0.48,0.896,0.721,1.67,0.721c0.707,0,1.247-0.24,1.62-0.721c0.373-0.479,0.561-1.12,0.561-1.92v-5.08
		c0-0.146,0.053-0.272,0.16-0.38c0.106-0.106,0.232-0.16,0.38-0.16h1.52c0.146,0,0.273,0.054,0.38,0.16
		c0.106,0.107,0.16,0.233,0.16,0.38v9.32c0,0.146-0.054,0.273-0.16,0.38c-0.106,0.107-0.233,0.16-0.38,0.16h-1.52
		c-0.147,0-0.273-0.053-0.38-0.16c-0.107-0.106-0.16-0.233-0.16-0.38v-0.46c-0.307,0.307-0.688,0.583-1.141,0.83
		c-0.453,0.246-1,0.37-1.64,0.37c-0.813,0-1.487-0.127-2.02-0.38c-0.534-0.254-0.96-0.594-1.28-1.021s-0.547-0.923-0.68-1.49
		c-0.134-0.566-0.2-1.163-0.2-1.79V60.314z"/>
	<path fill="#C3B42F" d="M95.615,69.634c0,0.146-0.054,0.273-0.16,0.38c-0.107,0.107-0.233,0.16-0.38,0.16h-1.521
		c-0.146,0-0.273-0.053-0.38-0.16c-0.106-0.106-0.16-0.233-0.16-0.38v-13.12c0-0.146,0.054-0.273,0.16-0.38s0.233-0.16,0.38-0.16
		h1.521c0.146,0,0.272,0.054,0.38,0.16c0.106,0.106,0.16,0.233,0.16,0.38V69.634z"/>
	<path fill="#C3B42F" d="M108.134,69.634c0,0.146-0.053,0.273-0.159,0.38c-0.107,0.107-0.234,0.16-0.381,0.16h-1.52
		c-0.146,0-0.273-0.053-0.38-0.16c-0.107-0.106-0.16-0.233-0.16-0.38v-5.08c0-0.8-0.187-1.439-0.56-1.92
		c-0.374-0.479-0.947-0.72-1.721-0.72c-0.707,0-1.264,0.24-1.67,0.72c-0.406,0.48-0.609,1.12-0.609,1.92v5.08
		c0,0.146-0.054,0.273-0.16,0.38c-0.107,0.107-0.233,0.16-0.38,0.16h-1.521c-0.146,0-0.273-0.053-0.38-0.16
		c-0.106-0.106-0.16-0.233-0.16-0.38v-9.32c0-0.146,0.054-0.272,0.16-0.38c0.106-0.106,0.233-0.16,0.38-0.16h1.521
		c0.146,0,0.272,0.054,0.38,0.16c0.106,0.107,0.16,0.233,0.16,0.38v0.46c0.346-0.346,0.753-0.633,1.22-0.859s1.02-0.34,1.66-0.34
		c0.812,0,1.493,0.127,2.04,0.38c0.546,0.253,0.986,0.593,1.319,1.02s0.57,0.924,0.71,1.49c0.141,0.566,0.21,1.163,0.21,1.79V69.634
		z"/>
	<path fill="#C3B42F" d="M110.274,64.974c0-0.746,0.112-1.45,0.34-2.109c0.227-0.66,0.553-1.233,0.979-1.721
		c0.427-0.486,0.943-0.87,1.551-1.149c0.606-0.28,1.282-0.42,2.029-0.42s1.424,0.137,2.03,0.409c0.606,0.273,1.123,0.641,1.55,1.101
		s0.757,1,0.99,1.62s0.35,1.27,0.35,1.95v0.899c0,0.147-0.053,0.273-0.16,0.38c-0.106,0.107-0.233,0.16-0.38,0.16h-6.68
		c0,0.307,0.063,0.577,0.19,0.811c0.126,0.233,0.296,0.43,0.51,0.59c0.213,0.16,0.46,0.279,0.74,0.359
		c0.279,0.08,0.566,0.12,0.859,0.12c0.427,0,0.773-0.043,1.04-0.13s0.486-0.196,0.66-0.33c0.146-0.106,0.267-0.18,0.36-0.22
		c0.093-0.04,0.22-0.061,0.38-0.061h1.6c0.146,0,0.276,0.054,0.391,0.16c0.112,0.107,0.163,0.233,0.149,0.38
		c-0.014,0.188-0.117,0.428-0.31,0.721c-0.193,0.293-0.483,0.58-0.87,0.859c-0.387,0.28-0.863,0.521-1.43,0.721
		c-0.567,0.199-1.224,0.3-1.971,0.3s-1.423-0.13-2.029-0.391c-0.607-0.26-1.124-0.63-1.551-1.109c-0.427-0.48-0.753-1.05-0.979-1.71
		C110.387,66.504,110.274,65.774,110.274,64.974z M115.174,61.974c-0.387,0-0.717,0.057-0.99,0.17s-0.503,0.261-0.689,0.44
		s-0.33,0.38-0.43,0.6c-0.101,0.221-0.164,0.431-0.19,0.63h4.521c-0.027-0.199-0.077-0.409-0.15-0.63
		c-0.073-0.22-0.193-0.42-0.36-0.6s-0.387-0.327-0.66-0.44S115.601,61.974,115.174,61.974z"/>
	<path fill="#C3B42F" d="M127.934,67.194c0-0.146-0.047-0.266-0.14-0.359c-0.094-0.094-0.257-0.18-0.49-0.26s-0.544-0.16-0.93-0.24
		c-0.388-0.08-0.881-0.187-1.48-0.32c-0.587-0.133-1.073-0.3-1.46-0.5s-0.697-0.433-0.93-0.7c-0.233-0.267-0.397-0.569-0.49-0.909
		c-0.094-0.341-0.14-0.711-0.14-1.11c0-0.4,0.093-0.793,0.279-1.18s0.457-0.73,0.811-1.03c0.353-0.3,0.783-0.543,1.29-0.73
		c0.506-0.187,1.086-0.279,1.739-0.279s1.237,0.073,1.75,0.22c0.514,0.146,0.95,0.34,1.311,0.58c0.359,0.24,0.64,0.517,0.84,0.83
		s0.313,0.63,0.34,0.95c0.014,0.146-0.037,0.273-0.149,0.38c-0.114,0.106-0.244,0.159-0.391,0.159h-1.54
		c-0.2,0-0.35-0.036-0.45-0.109c-0.1-0.073-0.21-0.156-0.329-0.25c-0.12-0.094-0.28-0.177-0.48-0.25s-0.5-0.11-0.9-0.11
		c-0.399,0-0.753,0.061-1.06,0.181c-0.307,0.119-0.46,0.333-0.46,0.64c0,0.146,0.036,0.27,0.11,0.37
		c0.072,0.1,0.213,0.189,0.42,0.27c0.206,0.08,0.493,0.164,0.859,0.25c0.367,0.087,0.844,0.19,1.431,0.311
		c1.187,0.253,2.022,0.649,2.51,1.189c0.486,0.54,0.729,1.21,0.729,2.01c0,0.4-0.1,0.79-0.3,1.171c-0.2,0.38-0.49,0.72-0.87,1.02
		s-0.847,0.54-1.399,0.72c-0.554,0.181-1.177,0.271-1.87,0.271c-0.707,0-1.33-0.084-1.87-0.25c-0.54-0.167-0.997-0.384-1.37-0.65
		s-0.66-0.566-0.86-0.899c-0.199-0.334-0.307-0.66-0.319-0.98c-0.014-0.146,0.036-0.273,0.149-0.38s0.243-0.16,0.391-0.16h1.54
		c0.199,0,0.35,0.047,0.449,0.14c0.101,0.094,0.214,0.2,0.341,0.32c0.126,0.12,0.303,0.227,0.529,0.32s0.566,0.14,1.021,0.14
		c0.2,0,0.406-0.013,0.62-0.04c0.213-0.026,0.41-0.069,0.59-0.13c0.18-0.06,0.33-0.14,0.45-0.24
		C127.874,67.464,127.934,67.341,127.934,67.194z"/>
	<path fill="#C3B42F" d="M138.334,67.194c0-0.146-0.047-0.266-0.14-0.359c-0.094-0.094-0.257-0.18-0.49-0.26s-0.544-0.16-0.93-0.24
		c-0.388-0.08-0.881-0.187-1.48-0.32c-0.587-0.133-1.073-0.3-1.46-0.5s-0.697-0.433-0.93-0.7c-0.233-0.267-0.397-0.569-0.49-0.909
		c-0.094-0.341-0.14-0.711-0.14-1.11c0-0.4,0.093-0.793,0.279-1.18s0.457-0.73,0.811-1.03c0.353-0.3,0.783-0.543,1.29-0.73
		c0.506-0.187,1.086-0.279,1.739-0.279s1.237,0.073,1.75,0.22c0.514,0.146,0.95,0.34,1.311,0.58c0.359,0.24,0.64,0.517,0.84,0.83
		s0.313,0.63,0.34,0.95c0.014,0.146-0.037,0.273-0.149,0.38c-0.114,0.106-0.244,0.159-0.391,0.159h-1.54
		c-0.2,0-0.35-0.036-0.45-0.109c-0.1-0.073-0.21-0.156-0.329-0.25c-0.12-0.094-0.28-0.177-0.48-0.25s-0.5-0.11-0.9-0.11
		c-0.399,0-0.753,0.061-1.06,0.181c-0.307,0.119-0.46,0.333-0.46,0.64c0,0.146,0.036,0.27,0.11,0.37
		c0.072,0.1,0.213,0.189,0.42,0.27c0.206,0.08,0.493,0.164,0.859,0.25c0.367,0.087,0.844,0.19,1.431,0.311
		c1.187,0.253,2.022,0.649,2.51,1.189c0.486,0.54,0.729,1.21,0.729,2.01c0,0.4-0.1,0.79-0.3,1.171c-0.2,0.38-0.49,0.72-0.87,1.02
		s-0.847,0.54-1.399,0.72c-0.554,0.181-1.177,0.271-1.87,0.271c-0.707,0-1.33-0.084-1.87-0.25c-0.54-0.167-0.997-0.384-1.37-0.65
		s-0.66-0.566-0.86-0.899c-0.199-0.334-0.307-0.66-0.319-0.98c-0.014-0.146,0.036-0.273,0.149-0.38s0.243-0.16,0.391-0.16h1.54
		c0.199,0,0.35,0.047,0.449,0.14c0.101,0.094,0.214,0.2,0.341,0.32c0.126,0.12,0.303,0.227,0.529,0.32s0.566,0.14,1.021,0.14
		c0.2,0,0.406-0.013,0.62-0.04c0.213-0.026,0.41-0.069,0.59-0.13c0.18-0.06,0.33-0.14,0.45-0.24
		C138.274,67.464,138.334,67.341,138.334,67.194z"/>
</g>
<g>
	<path fill="#C3B42F" d="M40.731,115.476c-0.023,0.664-0.023,1.336,0,2.016c0.032,0.912,0.26,1.572,0.685,1.98
		c0.424,0.408,1.004,0.612,1.739,0.612c0.32,0,0.614-0.03,0.882-0.091c0.269-0.06,0.505-0.161,0.708-0.306
		c0.204-0.144,0.379-0.334,0.522-0.57c0.144-0.235,0.256-0.533,0.336-0.894c0.016-0.096,0.048-0.162,0.096-0.198
		c0.049-0.036,0.104-0.054,0.168-0.054h0.24c0.072,0,0.134,0.022,0.187,0.065c0.052,0.045,0.073,0.103,0.065,0.175
		c-0.016,0.288-0.084,0.584-0.204,0.888s-0.308,0.582-0.563,0.834s-0.584,0.46-0.984,0.624s-0.884,0.246-1.452,0.246
		c-0.544,0-1.012-0.082-1.403-0.246c-0.393-0.164-0.719-0.39-0.979-0.678s-0.454-0.63-0.582-1.026
		c-0.128-0.396-0.2-0.83-0.216-1.302c-0.017-0.328-0.024-0.68-0.024-1.057c0-0.375,0.008-0.735,0.024-1.079
		c0.016-0.464,0.088-0.896,0.216-1.297c0.128-0.399,0.322-0.743,0.582-1.031s0.586-0.515,0.979-0.679
		c0.392-0.163,0.859-0.245,1.403-0.245c0.568,0,1.052,0.082,1.452,0.245c0.4,0.164,0.729,0.372,0.984,0.624s0.443,0.53,0.563,0.834
		c0.12,0.305,0.188,0.601,0.204,0.889c0.008,0.071-0.014,0.13-0.065,0.174c-0.053,0.044-0.114,0.065-0.187,0.065h-0.24
		c-0.063,0-0.119-0.018-0.168-0.054c-0.048-0.036-0.08-0.102-0.096-0.198c-0.08-0.359-0.192-0.657-0.336-0.894
		s-0.318-0.426-0.522-0.57c-0.203-0.144-0.439-0.246-0.708-0.306c-0.268-0.06-0.562-0.09-0.882-0.09
		c-0.735,0-1.315,0.204-1.739,0.611C40.991,113.904,40.764,114.564,40.731,115.476z"/>
	<path fill="#C3B42F" d="M50.967,112.165c0.464,0,0.889,0.067,1.272,0.203c0.384,0.137,0.714,0.343,0.99,0.618
		c0.275,0.276,0.491,0.62,0.647,1.032s0.242,0.898,0.258,1.458c0.017,0.36,0.024,0.696,0.024,1.008c0,0.312-0.008,0.648-0.024,1.008
		c-0.031,1.137-0.319,1.973-0.863,2.509c-0.545,0.536-1.312,0.804-2.305,0.804c-1,0-1.77-0.268-2.31-0.804s-0.826-1.372-0.858-2.509
		c-0.016-0.359-0.023-0.695-0.023-1.008c0-0.312,0.008-0.647,0.023-1.008c0.017-0.56,0.103-1.046,0.258-1.458
		c0.156-0.412,0.372-0.756,0.648-1.032c0.276-0.275,0.604-0.481,0.984-0.618C50.069,112.232,50.495,112.165,50.967,112.165z
		 M50.967,112.884c-0.336,0-0.647,0.05-0.936,0.149c-0.288,0.101-0.54,0.259-0.756,0.475s-0.387,0.492-0.511,0.828
		s-0.193,0.735-0.21,1.199c-0.008,0.185-0.014,0.353-0.018,0.505c-0.004,0.151-0.006,0.3-0.006,0.443
		c0,0.145,0.002,0.294,0.006,0.45s0.01,0.322,0.018,0.498c0.017,0.472,0.086,0.874,0.21,1.206s0.292,0.605,0.505,0.822
		c0.212,0.216,0.462,0.374,0.75,0.474c0.287,0.101,0.604,0.15,0.947,0.15s0.66-0.05,0.948-0.15c0.288-0.1,0.538-0.258,0.75-0.474
		c0.212-0.217,0.38-0.49,0.504-0.822s0.194-0.734,0.21-1.206c0.008-0.176,0.013-0.342,0.013-0.498s0-0.306,0-0.45
		c0-0.144,0-0.292,0-0.443c0-0.152-0.005-0.32-0.013-0.505c-0.016-0.464-0.086-0.863-0.21-1.199s-0.294-0.612-0.51-0.828
		s-0.468-0.374-0.756-0.475C51.615,112.934,51.303,112.884,50.967,112.884z"/>
	<path fill="#C3B42F" d="M56.823,113.796v6.624c0,0.176-0.092,0.264-0.275,0.264h-0.217c-0.176,0-0.264-0.088-0.264-0.264v-7.86
		c0-0.184,0.088-0.276,0.264-0.276h0.252c0.08,0,0.139,0.021,0.175,0.061c0.035,0.04,0.062,0.068,0.078,0.084l4.428,6.768v-6.636
		c0-0.184,0.088-0.276,0.264-0.276h0.216c0.185,0,0.276,0.093,0.276,0.276v7.848c0,0.185-0.088,0.276-0.264,0.276h-0.265
		c-0.08,0-0.138-0.02-0.174-0.06s-0.062-0.068-0.078-0.084L56.823,113.796z"/>
	<path fill="#C3B42F" d="M67.119,112.165c0.464,0,0.889,0.067,1.272,0.203c0.384,0.137,0.714,0.343,0.99,0.618
		c0.275,0.276,0.491,0.62,0.647,1.032s0.242,0.898,0.258,1.458c0.017,0.36,0.024,0.696,0.024,1.008c0,0.312-0.008,0.648-0.024,1.008
		c-0.031,1.137-0.319,1.973-0.863,2.509c-0.545,0.536-1.312,0.804-2.305,0.804c-1,0-1.77-0.268-2.31-0.804s-0.826-1.372-0.858-2.509
		c-0.016-0.359-0.023-0.695-0.023-1.008c0-0.312,0.008-0.647,0.023-1.008c0.017-0.56,0.103-1.046,0.258-1.458
		c0.156-0.412,0.372-0.756,0.648-1.032c0.276-0.275,0.604-0.481,0.984-0.618C66.222,112.232,66.647,112.165,67.119,112.165z
		 M67.119,112.884c-0.336,0-0.647,0.05-0.936,0.149c-0.288,0.101-0.54,0.259-0.756,0.475s-0.387,0.492-0.511,0.828
		s-0.193,0.735-0.21,1.199c-0.008,0.185-0.014,0.353-0.018,0.505c-0.004,0.151-0.006,0.3-0.006,0.443
		c0,0.145,0.002,0.294,0.006,0.45s0.01,0.322,0.018,0.498c0.017,0.472,0.086,0.874,0.21,1.206s0.292,0.605,0.505,0.822
		c0.212,0.216,0.462,0.374,0.75,0.474c0.287,0.101,0.604,0.15,0.947,0.15s0.66-0.05,0.948-0.15c0.288-0.1,0.538-0.258,0.75-0.474
		c0.212-0.217,0.38-0.49,0.504-0.822s0.194-0.734,0.21-1.206c0.008-0.176,0.013-0.342,0.013-0.498s0-0.306,0-0.45
		c0-0.144,0-0.292,0-0.443c0-0.152-0.005-0.32-0.013-0.505c-0.016-0.464-0.086-0.863-0.21-1.199s-0.294-0.612-0.51-0.828
		s-0.468-0.374-0.756-0.475C67.768,112.934,67.455,112.884,67.119,112.884z"/>
	<path fill="#C3B42F" d="M72.639,115.476c-0.023,0.664-0.023,1.336,0,2.016c0.032,0.912,0.26,1.572,0.685,1.98
		c0.424,0.408,1.004,0.612,1.739,0.612c0.32,0,0.614-0.03,0.882-0.091c0.269-0.06,0.505-0.161,0.708-0.306
		c0.204-0.144,0.379-0.334,0.522-0.57c0.144-0.235,0.256-0.533,0.336-0.894c0.016-0.096,0.048-0.162,0.096-0.198
		c0.049-0.036,0.104-0.054,0.168-0.054h0.24c0.072,0,0.134,0.022,0.187,0.065c0.052,0.045,0.073,0.103,0.065,0.175
		c-0.016,0.288-0.084,0.584-0.204,0.888s-0.308,0.582-0.563,0.834s-0.584,0.46-0.984,0.624s-0.884,0.246-1.452,0.246
		c-0.544,0-1.012-0.082-1.403-0.246c-0.393-0.164-0.719-0.39-0.979-0.678s-0.454-0.63-0.582-1.026
		c-0.128-0.396-0.2-0.83-0.216-1.302c-0.017-0.328-0.024-0.68-0.024-1.057c0-0.375,0.008-0.735,0.024-1.079
		c0.016-0.464,0.088-0.896,0.216-1.297c0.128-0.399,0.322-0.743,0.582-1.031s0.586-0.515,0.979-0.679
		c0.392-0.163,0.859-0.245,1.403-0.245c0.568,0,1.052,0.082,1.452,0.245c0.4,0.164,0.729,0.372,0.984,0.624s0.443,0.53,0.563,0.834
		c0.12,0.305,0.188,0.601,0.204,0.889c0.008,0.071-0.014,0.13-0.065,0.174c-0.053,0.044-0.114,0.065-0.187,0.065h-0.24
		c-0.063,0-0.119-0.018-0.168-0.054c-0.048-0.036-0.08-0.102-0.096-0.198c-0.08-0.359-0.192-0.657-0.336-0.894
		s-0.318-0.426-0.522-0.57c-0.203-0.144-0.439-0.246-0.708-0.306c-0.268-0.06-0.562-0.09-0.882-0.09
		c-0.735,0-1.315,0.204-1.739,0.611C72.898,113.904,72.671,114.564,72.639,115.476z"/>
	<path fill="#C3B42F" d="M85.07,119.964c0.184,0,0.276,0.092,0.276,0.275v0.181c0,0.176-0.093,0.264-0.276,0.264h-4.776
		c-0.176,0-0.264-0.088-0.264-0.264v-7.86c0-0.184,0.088-0.276,0.264-0.276h4.681c0.184,0,0.275,0.093,0.275,0.276v0.18
		c0,0.177-0.092,0.265-0.275,0.265h-4.188v3.06h3.924c0.185,0,0.276,0.092,0.276,0.276v0.18c0,0.176-0.092,0.264-0.276,0.264h-3.924
		v3.181H85.07z"/>
	<path fill="#C3B42F" d="M90.195,112.284c0.84,0,1.51,0.2,2.01,0.601s0.75,1.008,0.75,1.824c0,0.647-0.158,1.162-0.475,1.542
		c-0.315,0.38-0.762,0.638-1.338,0.773l1.933,3.288c0.023,0.048,0.035,0.092,0.035,0.132c0,0.064-0.023,0.12-0.071,0.168
		s-0.104,0.072-0.168,0.072h-0.145c-0.136,0-0.233-0.032-0.294-0.096c-0.06-0.064-0.114-0.141-0.162-0.229l-1.907-3.228h-2.473
		v3.288c0,0.176-0.092,0.264-0.275,0.264h-0.217c-0.176,0-0.264-0.088-0.264-0.264v-7.86c0-0.184,0.088-0.276,0.264-0.276H90.195z
		 M87.891,116.412h2.244c1.376,0,2.064-0.567,2.064-1.703c0-1.137-0.688-1.704-2.064-1.704h-2.244V116.412z"/>
	<path fill="#C3B42F" d="M101.331,118.668c-0.176,0-0.3-0.08-0.372-0.24l-2.292-4.512v6.504c0,0.176-0.088,0.264-0.264,0.264h-0.216
		c-0.185,0-0.276-0.088-0.276-0.264v-7.86c0-0.184,0.092-0.276,0.276-0.276h0.3c0.08,0,0.138,0.021,0.174,0.061
		s0.062,0.072,0.078,0.096l2.724,5.304l2.736-5.304c0.016-0.023,0.042-0.056,0.078-0.096s0.094-0.061,0.174-0.061h0.288
		c0.184,0,0.276,0.093,0.276,0.276v7.86c0,0.176-0.093,0.264-0.276,0.264h-0.216c-0.177,0-0.265-0.088-0.265-0.264v-6.504
		l-2.292,4.512c-0.071,0.16-0.195,0.24-0.372,0.24H101.331z"/>
	<path fill="#C3B42F" d="M112.167,118.584h-4.248l-0.744,1.92c-0.017,0.032-0.044,0.069-0.084,0.113
		c-0.04,0.045-0.101,0.066-0.181,0.066h-0.239c-0.064,0-0.12-0.024-0.168-0.072c-0.049-0.048-0.072-0.104-0.072-0.168
		c0-0.04,0.008-0.084,0.023-0.132l3.036-7.788c0.032-0.08,0.074-0.14,0.126-0.18c0.053-0.04,0.126-0.061,0.223-0.061h0.407
		c0.097,0,0.17,0.021,0.223,0.061c0.052,0.04,0.094,0.1,0.126,0.18l3.036,7.788c0.016,0.048,0.023,0.092,0.023,0.132
		c0,0.064-0.023,0.12-0.071,0.168c-0.049,0.048-0.104,0.072-0.168,0.072h-0.24c-0.08,0-0.141-0.021-0.181-0.066
		c-0.04-0.044-0.067-0.081-0.084-0.113L112.167,118.584z M108.207,117.864h3.672l-1.836-4.728L108.207,117.864z M110.475,110.34
		c0.063-0.08,0.124-0.136,0.18-0.168c0.057-0.032,0.145-0.048,0.265-0.048h0.552c0.151,0,0.228,0.076,0.228,0.228
		c0,0.056-0.02,0.104-0.06,0.144l-1.308,1.068c-0.064,0.057-0.122,0.09-0.175,0.103c-0.052,0.012-0.118,0.018-0.197,0.018h-0.181
		c-0.128,0-0.191-0.063-0.191-0.192c0-0.063,0.02-0.115,0.06-0.155L110.475,110.34z"/>
	<path fill="#C3B42F" d="M117.41,112.165c0.472,0,0.884,0.065,1.236,0.197c0.352,0.132,0.644,0.3,0.876,0.504
		c0.231,0.204,0.408,0.431,0.527,0.679c0.12,0.248,0.185,0.487,0.192,0.72c0,0.064-0.02,0.12-0.06,0.168s-0.104,0.072-0.192,0.072
		h-0.24c-0.04,0-0.09-0.017-0.149-0.048c-0.061-0.032-0.099-0.097-0.114-0.192c-0.048-0.4-0.258-0.73-0.63-0.99
		s-0.854-0.39-1.446-0.39c-0.296,0-0.568,0.028-0.815,0.084c-0.248,0.056-0.461,0.144-0.637,0.264s-0.313,0.271-0.414,0.45
		c-0.1,0.18-0.149,0.395-0.149,0.642c0,0.24,0.046,0.444,0.138,0.612s0.238,0.32,0.438,0.456c0.199,0.136,0.451,0.264,0.756,0.384
		c0.304,0.12,0.672,0.248,1.104,0.384c0.448,0.145,0.838,0.286,1.17,0.427c0.332,0.14,0.608,0.298,0.828,0.474
		s0.384,0.38,0.492,0.612c0.108,0.231,0.162,0.512,0.162,0.84c0,0.728-0.269,1.292-0.804,1.691c-0.536,0.4-1.272,0.601-2.208,0.601
		c-0.488,0-0.921-0.062-1.297-0.187c-0.376-0.123-0.693-0.285-0.953-0.485c-0.261-0.2-0.461-0.431-0.601-0.69
		s-0.214-0.525-0.222-0.798c0-0.063,0.023-0.12,0.072-0.168c0.048-0.048,0.107-0.072,0.18-0.072h0.24c0.079,0,0.14,0.024,0.18,0.072
		s0.067,0.104,0.084,0.168c0.024,0.168,0.084,0.338,0.18,0.51c0.097,0.173,0.238,0.326,0.427,0.462
		c0.188,0.137,0.422,0.248,0.701,0.336c0.28,0.089,0.616,0.133,1.009,0.133c0.783,0,1.355-0.143,1.716-0.427
		c0.359-0.283,0.54-0.666,0.54-1.146c0-0.24-0.053-0.442-0.156-0.606c-0.104-0.163-0.264-0.312-0.48-0.443
		c-0.216-0.132-0.487-0.259-0.815-0.378c-0.328-0.12-0.716-0.252-1.164-0.396c-0.432-0.136-0.802-0.273-1.11-0.414
		c-0.308-0.14-0.563-0.3-0.768-0.479c-0.204-0.181-0.354-0.389-0.45-0.624c-0.096-0.236-0.144-0.519-0.144-0.847
		c0-0.304,0.062-0.588,0.186-0.852s0.302-0.492,0.534-0.685c0.231-0.191,0.52-0.344,0.864-0.455
		C116.566,112.22,116.962,112.165,117.41,112.165z"/>
</g>
<line fill="none" stroke="#D6BE28" stroke-miterlimit="10" x1="24.476" y1="85.859" x2="70.976" y2="85.859"/>
</svg>
