<?xml version="1.0" encoding="utf-8"?>
<!-- Generator: Adobe Illustrator 15.0.0, SVG Export Plug-In . SVG Version: 6.00 Build 0)  -->
<!DOCTYPE svg PUBLIC "-//W3C//DTD SVG 1.1//EN" "http://www.w3.org/Graphics/SVG/1.1/DTD/svg11.dtd">
<svg version="1.1" id="Layer_1" xmlns="http://www.w3.org/2000/svg" xmlns:xlink="http://www.w3.org/1999/xlink" x="0px" y="0px"
	 width="257.753px" height="153.734px" viewBox="0 0 257.753 153.734" enable-background="new 0 0 257.753 153.734"
	 xml:space="preserve">
<path fill="#C5B72F" d="M257.753,153.734H0V0h242.753c8.283,0,15,6.717,15,15.001V153.734z"/>
<polygon fill="#FFFFFF" points="31.85,116.817 27.849,120.814 26.479,119.442 29.106,116.816 26.479,114.189 26.476,114.189 
	27.849,112.816 31.85,116.817 "/>
<g>
	<path fill="#FFFFFF" d="M31.936,36.174c1.613,0,2.866,0.38,3.76,1.14c0.894,0.761,1.34,1.874,1.34,3.341s-0.446,2.586-1.34,3.359
		s-2.146,1.16-3.76,1.16h-3.2v4.46c0,0.146-0.053,0.273-0.16,0.38c-0.106,0.107-0.233,0.16-0.38,0.16h-1.62
		c-0.146,0-0.273-0.053-0.38-0.16c-0.106-0.106-0.16-0.233-0.16-0.38v-12.92c0-0.146,0.054-0.273,0.16-0.38s0.233-0.16,0.38-0.16
		H31.936z M28.735,42.674h3.101c0.76,0,1.366-0.15,1.819-0.45s0.681-0.823,0.681-1.569c0-0.747-0.228-1.264-0.681-1.551
		c-0.453-0.286-1.06-0.43-1.819-0.43h-3.101V42.674z"/>
	<path fill="#FFFFFF" d="M44.016,35.974c0.893,0,1.68,0.12,2.359,0.36c0.681,0.24,1.247,0.54,1.7,0.899
		c0.453,0.36,0.797,0.757,1.03,1.19s0.363,0.844,0.39,1.23c0.014,0.159-0.037,0.289-0.149,0.39c-0.114,0.1-0.244,0.149-0.391,0.149
		h-1.399c-0.228,0-0.397-0.043-0.511-0.13c-0.113-0.086-0.217-0.203-0.31-0.35c-0.2-0.333-0.504-0.623-0.91-0.87
		c-0.407-0.246-1.01-0.37-1.81-0.37c-0.348,0-0.677,0.037-0.99,0.11s-0.587,0.18-0.82,0.32c-0.233,0.14-0.417,0.31-0.55,0.51
		c-0.134,0.2-0.2,0.427-0.2,0.68c0,0.307,0.063,0.557,0.19,0.75c0.126,0.193,0.34,0.36,0.64,0.5s0.696,0.271,1.19,0.39
		c0.493,0.12,1.106,0.261,1.84,0.421c0.8,0.173,1.49,0.376,2.07,0.609c0.579,0.233,1.053,0.514,1.42,0.84
		c0.366,0.327,0.64,0.704,0.819,1.13c0.181,0.428,0.271,0.914,0.271,1.46c0,0.601-0.134,1.157-0.4,1.671
		c-0.267,0.513-0.646,0.953-1.14,1.319c-0.493,0.367-1.101,0.657-1.82,0.87s-1.526,0.32-2.42,0.32c-0.747,0-1.46-0.09-2.14-0.271
		c-0.681-0.18-1.284-0.439-1.811-0.779c-0.526-0.341-0.95-0.75-1.27-1.23c-0.32-0.479-0.5-1.013-0.54-1.6
		c-0.014-0.16,0.036-0.29,0.149-0.391c0.113-0.1,0.243-0.149,0.391-0.149h1.399c0.227,0,0.4,0.04,0.521,0.12s0.22,0.199,0.3,0.359
		c0.093,0.174,0.207,0.347,0.34,0.521c0.134,0.173,0.313,0.326,0.54,0.46c0.227,0.133,0.51,0.243,0.851,0.33
		c0.34,0.087,0.763,0.13,1.27,0.13c0.4,0,0.786-0.03,1.16-0.09c0.373-0.061,0.7-0.16,0.979-0.301c0.28-0.14,0.507-0.312,0.681-0.52
		c0.173-0.207,0.26-0.463,0.26-0.771c0-0.293-0.094-0.532-0.28-0.72c-0.187-0.187-0.47-0.347-0.85-0.479
		c-0.38-0.134-0.851-0.261-1.41-0.38c-0.56-0.12-1.207-0.273-1.94-0.46c-0.666-0.16-1.25-0.351-1.75-0.57s-0.913-0.49-1.239-0.811
		c-0.327-0.319-0.57-0.696-0.73-1.13c-0.16-0.433-0.24-0.95-0.24-1.55s0.134-1.153,0.4-1.66c0.267-0.506,0.633-0.939,1.1-1.3
		s1.023-0.644,1.67-0.85C42.572,36.078,43.269,35.974,44.016,35.974z"/>
	<path fill="#FFFFFF" d="M52.715,50.174c-0.146,0-0.273-0.053-0.38-0.16c-0.106-0.106-0.16-0.233-0.16-0.38v-12.92
		c0-0.146,0.054-0.273,0.16-0.38s0.233-0.16,0.38-0.16h1.62c0.146,0,0.273,0.054,0.38,0.16c0.107,0.106,0.16,0.233,0.16,0.38v12.92
		c0,0.146-0.053,0.273-0.16,0.38c-0.106,0.107-0.233,0.16-0.38,0.16H52.715z"/>
	<path fill="#FFFFFF" d="M66.596,45.734c0.026-0.173,0.097-0.303,0.21-0.39s0.236-0.13,0.37-0.13h1.62c0.146,0,0.276,0.05,0.39,0.15
		c0.113,0.1,0.163,0.229,0.15,0.39c-0.04,0.547-0.178,1.094-0.41,1.64c-0.233,0.547-0.59,1.04-1.07,1.48
		c-0.479,0.439-1.087,0.8-1.82,1.08c-0.733,0.279-1.619,0.42-2.659,0.42c-0.921,0-1.733-0.137-2.44-0.41s-1.307-0.653-1.8-1.14
		c-0.493-0.487-0.877-1.07-1.15-1.75c-0.273-0.681-0.437-1.42-0.49-2.221c-0.026-0.506-0.04-1.066-0.04-1.68s0.014-1.173,0.04-1.68
		c0.054-0.801,0.217-1.54,0.49-2.221c0.273-0.68,0.657-1.263,1.15-1.75c0.493-0.486,1.093-0.866,1.8-1.14s1.52-0.41,2.44-0.41
		c1.04,0,1.926,0.141,2.659,0.42c0.733,0.28,1.341,0.641,1.82,1.08c0.48,0.44,0.837,0.938,1.07,1.49
		c0.232,0.554,0.37,1.097,0.41,1.63c0.013,0.16-0.037,0.29-0.15,0.39c-0.113,0.101-0.243,0.15-0.39,0.15h-1.62
		c-0.134,0-0.26-0.043-0.38-0.13s-0.193-0.217-0.221-0.39c-0.04-0.267-0.133-0.527-0.279-0.78c-0.147-0.253-0.348-0.48-0.601-0.68
		c-0.253-0.2-0.573-0.363-0.96-0.49s-0.84-0.19-1.359-0.19c-0.521,0-0.974,0.08-1.36,0.24s-0.71,0.373-0.97,0.64
		c-0.261,0.268-0.46,0.587-0.601,0.96c-0.14,0.374-0.224,0.768-0.25,1.181c-0.026,0.507-0.04,1.066-0.04,1.68s0.014,1.174,0.04,1.68
		c0.026,0.427,0.11,0.824,0.25,1.19c0.141,0.367,0.34,0.684,0.601,0.95c0.26,0.267,0.583,0.479,0.97,0.64s0.84,0.24,1.36,0.24
		c0.52,0,0.973-0.063,1.359-0.19c0.387-0.126,0.71-0.29,0.97-0.49c0.261-0.199,0.464-0.426,0.61-0.68
		C66.462,46.261,66.556,46.001,66.596,45.734z"/>
	<path fill="#FFFFFF" d="M71.195,41.394c0.04-0.746,0.183-1.45,0.43-2.109c0.247-0.66,0.61-1.233,1.09-1.721
		c0.48-0.486,1.08-0.873,1.801-1.159c0.72-0.287,1.572-0.431,2.56-0.431c0.974,0,1.82,0.141,2.54,0.42
		c0.72,0.28,1.32,0.667,1.8,1.16c0.48,0.493,0.847,1.067,1.101,1.72c0.253,0.654,0.399,1.36,0.439,2.12
		c0.014,0.254,0.023,0.534,0.03,0.84c0.007,0.308,0.01,0.624,0.01,0.95c0,0.327-0.003,0.644-0.01,0.95s-0.017,0.587-0.03,0.84
		c-0.04,0.747-0.184,1.45-0.43,2.11c-0.247,0.66-0.61,1.233-1.09,1.72c-0.48,0.487-1.084,0.87-1.811,1.15
		c-0.727,0.279-1.576,0.42-2.55,0.42c-0.987,0-1.84-0.141-2.56-0.42c-0.721-0.28-1.32-0.663-1.801-1.15
		c-0.479-0.486-0.843-1.06-1.09-1.72s-0.39-1.363-0.43-2.11c-0.014-0.253-0.023-0.533-0.03-0.84s-0.01-0.623-0.01-0.95
		c0-0.326,0.003-0.643,0.01-0.95C71.172,41.928,71.182,41.648,71.195,41.394z M80.255,41.495c-0.053-0.96-0.363-1.703-0.93-2.23
		c-0.566-0.526-1.316-0.79-2.25-0.79s-1.684,0.264-2.25,0.79c-0.566,0.527-0.877,1.271-0.93,2.23
		c-0.027,0.507-0.04,1.069-0.04,1.689s0.013,1.184,0.04,1.69c0.053,0.96,0.363,1.7,0.93,2.22c0.566,0.521,1.316,0.78,2.25,0.78
		s1.684-0.26,2.25-0.78c0.566-0.52,0.877-1.26,0.93-2.22c0.027-0.507,0.04-1.07,0.04-1.69S80.282,42.001,80.255,41.495z"/>
	<path fill="#FFFFFF" d="M85.835,45.375c-0.146,0-0.273-0.054-0.38-0.16s-0.16-0.233-0.16-0.38v-1.32c0-0.146,0.054-0.273,0.16-0.38
		s0.233-0.16,0.38-0.16h6.101c0.146,0,0.272,0.054,0.38,0.16c0.106,0.106,0.16,0.233,0.16,0.38v1.32c0,0.146-0.054,0.273-0.16,0.38
		c-0.107,0.106-0.233,0.16-0.38,0.16H85.835z"/>
	<path fill="#FFFFFF" d="M94.814,41.394c0.04-0.746,0.183-1.45,0.43-2.109c0.247-0.66,0.61-1.233,1.09-1.721
		c0.48-0.486,1.08-0.873,1.801-1.159c0.72-0.287,1.572-0.431,2.56-0.431c0.974,0,1.82,0.141,2.54,0.42
		c0.72,0.28,1.32,0.667,1.8,1.16c0.48,0.493,0.847,1.067,1.101,1.72c0.253,0.654,0.399,1.36,0.439,2.12
		c0.014,0.254,0.023,0.534,0.03,0.84c0.007,0.308,0.01,0.624,0.01,0.95c0,0.327-0.003,0.644-0.01,0.95s-0.017,0.587-0.03,0.84
		c-0.04,0.747-0.184,1.45-0.43,2.11c-0.247,0.66-0.61,1.233-1.09,1.72c-0.48,0.487-1.084,0.87-1.811,1.15
		c-0.727,0.279-1.576,0.42-2.55,0.42c-0.987,0-1.84-0.141-2.56-0.42c-0.721-0.28-1.32-0.663-1.801-1.15
		c-0.479-0.486-0.843-1.06-1.09-1.72s-0.39-1.363-0.43-2.11c-0.014-0.253-0.023-0.533-0.03-0.84s-0.01-0.623-0.01-0.95
		c0-0.326,0.003-0.643,0.01-0.95C94.791,41.928,94.801,41.648,94.814,41.394z M103.874,41.495c-0.053-0.96-0.363-1.703-0.93-2.23
		c-0.566-0.526-1.316-0.79-2.25-0.79s-1.684,0.264-2.25,0.79c-0.566,0.527-0.877,1.271-0.93,2.23
		c-0.027,0.507-0.04,1.069-0.04,1.689s0.013,1.184,0.04,1.69c0.053,0.96,0.363,1.7,0.93,2.22c0.566,0.521,1.316,0.78,2.25,0.78
		s1.684-0.26,2.25-0.78c0.566-0.52,0.877-1.26,0.93-2.22c0.027-0.507,0.04-1.07,0.04-1.69S103.901,42.001,103.874,41.495z"/>
	<path fill="#FFFFFF" d="M118.294,50.174c-0.227,0-0.399-0.06-0.52-0.18s-0.207-0.214-0.26-0.28l-5.601-8.32v8.24
		c0,0.146-0.053,0.273-0.16,0.38c-0.106,0.107-0.233,0.16-0.38,0.16h-1.62c-0.146,0-0.273-0.053-0.38-0.16
		c-0.106-0.106-0.16-0.233-0.16-0.38v-12.92c0-0.146,0.054-0.273,0.16-0.38s0.233-0.16,0.38-0.16h1.4c0.227,0,0.4,0.06,0.52,0.18
		c0.12,0.12,0.207,0.214,0.261,0.28l5.6,8.32v-8.24c0-0.146,0.054-0.273,0.16-0.38s0.233-0.16,0.38-0.16h1.62
		c0.146,0,0.273,0.054,0.38,0.16s0.16,0.233,0.16,0.38v12.92c0,0.146-0.054,0.273-0.16,0.38c-0.106,0.107-0.233,0.16-0.38,0.16
		H118.294z"/>
	<path fill="#FFFFFF" d="M131.954,45.734c0.026-0.173,0.097-0.303,0.21-0.39s0.236-0.13,0.37-0.13h1.62
		c0.146,0,0.276,0.05,0.39,0.15c0.113,0.1,0.163,0.229,0.15,0.39c-0.04,0.547-0.178,1.094-0.41,1.64
		c-0.233,0.547-0.59,1.04-1.07,1.48c-0.479,0.439-1.087,0.8-1.82,1.08c-0.733,0.279-1.619,0.42-2.659,0.42
		c-0.921,0-1.733-0.137-2.44-0.41s-1.307-0.653-1.8-1.14c-0.493-0.487-0.877-1.07-1.15-1.75c-0.273-0.681-0.437-1.42-0.49-2.221
		c-0.026-0.506-0.04-1.066-0.04-1.68s0.014-1.173,0.04-1.68c0.054-0.801,0.217-1.54,0.49-2.221c0.273-0.68,0.657-1.263,1.15-1.75
		c0.493-0.486,1.093-0.866,1.8-1.14s1.52-0.41,2.44-0.41c1.04,0,1.926,0.141,2.659,0.42c0.733,0.28,1.341,0.641,1.82,1.08
		c0.48,0.44,0.837,0.938,1.07,1.49c0.232,0.554,0.37,1.097,0.41,1.63c0.013,0.16-0.037,0.29-0.15,0.39
		c-0.113,0.101-0.243,0.15-0.39,0.15h-1.62c-0.134,0-0.26-0.043-0.38-0.13s-0.193-0.217-0.221-0.39
		c-0.04-0.267-0.133-0.527-0.279-0.78c-0.147-0.253-0.348-0.48-0.601-0.68c-0.253-0.2-0.573-0.363-0.96-0.49s-0.84-0.19-1.359-0.19
		c-0.521,0-0.974,0.08-1.36,0.24s-0.71,0.373-0.97,0.64c-0.261,0.268-0.46,0.587-0.601,0.96c-0.14,0.374-0.224,0.768-0.25,1.181
		c-0.026,0.507-0.04,1.066-0.04,1.68s0.014,1.174,0.04,1.68c0.026,0.427,0.11,0.824,0.25,1.19c0.141,0.367,0.34,0.684,0.601,0.95
		c0.26,0.267,0.583,0.479,0.97,0.64s0.84,0.24,1.36,0.24c0.52,0,0.973-0.063,1.359-0.19c0.387-0.126,0.71-0.29,0.97-0.49
		c0.261-0.199,0.464-0.426,0.61-0.68C131.82,46.261,131.914,46.001,131.954,45.734z"/>
	<path fill="#FFFFFF" d="M136.554,41.394c0.04-0.746,0.183-1.45,0.43-2.109c0.247-0.66,0.61-1.233,1.09-1.721
		c0.48-0.486,1.08-0.873,1.801-1.159c0.72-0.287,1.572-0.431,2.56-0.431c0.974,0,1.82,0.141,2.54,0.42
		c0.72,0.28,1.32,0.667,1.8,1.16c0.48,0.493,0.847,1.067,1.101,1.72c0.253,0.654,0.399,1.36,0.439,2.12
		c0.014,0.254,0.023,0.534,0.03,0.84c0.007,0.308,0.01,0.624,0.01,0.95c0,0.327-0.003,0.644-0.01,0.95s-0.017,0.587-0.03,0.84
		c-0.04,0.747-0.184,1.45-0.43,2.11c-0.247,0.66-0.61,1.233-1.09,1.72c-0.48,0.487-1.084,0.87-1.811,1.15
		c-0.727,0.279-1.576,0.42-2.55,0.42c-0.987,0-1.84-0.141-2.56-0.42c-0.721-0.28-1.32-0.663-1.801-1.15
		c-0.479-0.486-0.843-1.06-1.09-1.72s-0.39-1.363-0.43-2.11c-0.014-0.253-0.023-0.533-0.03-0.84s-0.01-0.623-0.01-0.95
		c0-0.326,0.003-0.643,0.01-0.95C136.53,41.928,136.54,41.648,136.554,41.394z M145.613,41.495c-0.053-0.96-0.363-1.703-0.93-2.23
		c-0.566-0.526-1.316-0.79-2.25-0.79s-1.684,0.264-2.25,0.79c-0.566,0.527-0.877,1.271-0.93,2.23
		c-0.027,0.507-0.04,1.069-0.04,1.689s0.013,1.184,0.04,1.69c0.053,0.96,0.363,1.7,0.93,2.22c0.566,0.521,1.316,0.78,2.25,0.78
		s1.684-0.26,2.25-0.78c0.566-0.52,0.877-1.26,0.93-2.22c0.027-0.507,0.04-1.07,0.04-1.69S145.641,42.001,145.613,41.495z"/>
	<path fill="#FFFFFF" d="M160.255,47.674c0.146,0,0.272,0.054,0.38,0.16c0.106,0.106,0.16,0.233,0.16,0.38v1.42
		c0,0.146-0.054,0.273-0.16,0.38c-0.107,0.107-0.233,0.16-0.38,0.16h-8.761c-0.146,0-0.273-0.053-0.38-0.16
		c-0.106-0.106-0.16-0.233-0.16-0.38v-12.92c0-0.146,0.054-0.273,0.16-0.38s0.233-0.16,0.38-0.16h1.62
		c0.146,0,0.273,0.054,0.38,0.16c0.107,0.106,0.16,0.233,0.16,0.38v10.96H160.255z"/>
	<path fill="#FFFFFF" d="M162.015,41.394c0.04-0.746,0.183-1.45,0.43-2.109c0.247-0.66,0.61-1.233,1.09-1.721
		c0.48-0.486,1.08-0.873,1.801-1.159c0.72-0.287,1.572-0.431,2.56-0.431c0.974,0,1.82,0.141,2.54,0.42
		c0.72,0.28,1.32,0.667,1.8,1.16c0.48,0.493,0.847,1.067,1.101,1.72c0.253,0.654,0.399,1.36,0.439,2.12
		c0.014,0.254,0.023,0.534,0.03,0.84c0.007,0.308,0.01,0.624,0.01,0.95c0,0.327-0.003,0.644-0.01,0.95s-0.017,0.587-0.03,0.84
		c-0.04,0.747-0.184,1.45-0.43,2.11c-0.247,0.66-0.61,1.233-1.09,1.72c-0.48,0.487-1.084,0.87-1.811,1.15
		c-0.727,0.279-1.576,0.42-2.55,0.42c-0.987,0-1.84-0.141-2.56-0.42c-0.721-0.28-1.32-0.663-1.801-1.15
		c-0.479-0.486-0.843-1.06-1.09-1.72s-0.39-1.363-0.43-2.11c-0.014-0.253-0.023-0.533-0.03-0.84s-0.01-0.623-0.01-0.95
		c0-0.326,0.003-0.643,0.01-0.95C161.991,41.928,162.001,41.648,162.015,41.394z M171.074,41.495c-0.053-0.96-0.363-1.703-0.93-2.23
		c-0.566-0.526-1.316-0.79-2.25-0.79s-1.684,0.264-2.25,0.79c-0.566,0.527-0.877,1.271-0.93,2.23
		c-0.027,0.507-0.04,1.069-0.04,1.689s0.013,1.184,0.04,1.69c0.053,0.96,0.363,1.7,0.93,2.22c0.566,0.521,1.316,0.78,2.25,0.78
		s1.684-0.26,2.25-0.78c0.566-0.52,0.877-1.26,0.93-2.22c0.027-0.507,0.04-1.07,0.04-1.69S171.102,42.001,171.074,41.495z"/>
	<path fill="#FFFFFF" d="M175.914,41.354c0.027-0.8,0.174-1.529,0.44-2.189s0.653-1.227,1.16-1.7s1.13-0.84,1.87-1.1
		c0.739-0.261,1.603-0.391,2.59-0.391c1.16,0,2.116,0.15,2.87,0.45c0.753,0.3,1.353,0.66,1.8,1.08c0.446,0.42,0.76,0.854,0.94,1.3
		c0.18,0.447,0.282,0.823,0.31,1.13c0.013,0.16-0.037,0.29-0.15,0.391c-0.113,0.1-0.243,0.149-0.39,0.149h-1.62
		c-0.146,0-0.264-0.036-0.35-0.109c-0.087-0.073-0.15-0.15-0.19-0.23c-0.026-0.053-0.097-0.17-0.21-0.35
		c-0.113-0.181-0.293-0.367-0.54-0.561s-0.57-0.366-0.97-0.52c-0.4-0.153-0.9-0.23-1.5-0.23c-1,0-1.8,0.271-2.4,0.811
		c-0.6,0.54-0.92,1.263-0.96,2.17c-0.026,0.507-0.04,1.05-0.04,1.63s0.014,1.123,0.04,1.63c0.04,1.106,0.36,1.91,0.96,2.41
		c0.601,0.5,1.4,0.75,2.4,0.75c0.493,0,0.946-0.054,1.36-0.16c0.413-0.106,0.77-0.28,1.069-0.521c0.3-0.239,0.533-0.556,0.7-0.949
		s0.25-0.877,0.25-1.45v-0.16h-2.44c-0.146,0-0.273-0.053-0.38-0.16c-0.106-0.106-0.16-0.233-0.16-0.38v-1.42
		c0-0.146,0.054-0.273,0.16-0.38s0.233-0.16,0.38-0.16h4.601c0.146,0,0.273,0.054,0.38,0.16s0.16,0.233,0.16,0.38v2.2
		c0,0.8-0.127,1.537-0.38,2.21c-0.254,0.673-0.634,1.253-1.141,1.74c-0.507,0.486-1.14,0.866-1.899,1.14
		c-0.761,0.273-1.647,0.41-2.66,0.41c-1.014,0-1.894-0.134-2.64-0.4c-0.747-0.267-1.367-0.64-1.86-1.12
		c-0.493-0.479-0.87-1.057-1.13-1.729s-0.403-1.41-0.431-2.21c-0.013-0.253-0.023-0.533-0.029-0.84
		c-0.007-0.307-0.011-0.62-0.011-0.94s0.004-0.633,0.011-0.94C175.891,41.888,175.901,41.608,175.914,41.354z"/>
	<path fill="#FFFFFF" d="M191.114,50.174c-0.146,0-0.273-0.053-0.38-0.16c-0.106-0.106-0.16-0.233-0.16-0.38v-12.92
		c0-0.146,0.054-0.273,0.16-0.38s0.233-0.16,0.38-0.16h1.62c0.146,0,0.273,0.054,0.38,0.16c0.107,0.106,0.16,0.233,0.16,0.38v12.92
		c0,0.146-0.053,0.273-0.16,0.38c-0.106,0.107-0.233,0.16-0.38,0.16H191.114z M192.595,32.554c0.146-0.173,0.27-0.28,0.37-0.32
		c0.1-0.04,0.223-0.06,0.37-0.06h2c0.253,0,0.38,0.134,0.38,0.4c0,0.093-0.033,0.173-0.101,0.239l-2.46,2.021
		c-0.106,0.094-0.22,0.173-0.34,0.24c-0.12,0.066-0.287,0.1-0.5,0.1h-1.2c-0.213,0-0.319-0.106-0.319-0.32
		c0-0.08,0.033-0.166,0.1-0.26L192.595,32.554z"/>
	<path fill="#FFFFFF" d="M202.974,36.174c0.214,0,0.373,0.057,0.48,0.17c0.106,0.113,0.2,0.283,0.28,0.51l4.899,12.641
		c0.014,0.04,0.021,0.087,0.021,0.14c0,0.146-0.054,0.273-0.16,0.38c-0.107,0.107-0.233,0.16-0.38,0.16h-1.44
		c-0.267,0-0.453-0.057-0.56-0.17c-0.107-0.113-0.181-0.224-0.221-0.33l-0.859-2.22h-6.32l-0.86,2.22
		c-0.039,0.106-0.113,0.217-0.22,0.33s-0.293,0.17-0.56,0.17h-1.44c-0.146,0-0.273-0.053-0.38-0.16
		c-0.106-0.106-0.16-0.233-0.16-0.38c0-0.053,0.007-0.1,0.021-0.14l4.899-12.641c0.08-0.227,0.174-0.396,0.28-0.51
		s0.267-0.17,0.48-0.17H202.974z M204.074,44.955l-2.2-5.7l-2.2,5.7H204.074z"/>
	<path fill="#FFFFFF" d="M28.855,61.774c0.392,0,0.762,0.051,1.11,0.15c0.348,0.101,0.653,0.254,0.918,0.462
		c0.264,0.208,0.474,0.473,0.63,0.792c0.156,0.32,0.234,0.7,0.234,1.14c0,0.44-0.078,0.822-0.234,1.146s-0.366,0.594-0.63,0.81
		c-0.265,0.217-0.57,0.377-0.918,0.48c-0.349,0.104-0.719,0.156-1.11,0.156h-2.208v2.939c0,0.088-0.032,0.164-0.096,0.229
		c-0.064,0.063-0.141,0.096-0.229,0.096h-0.491c-0.089,0-0.164-0.032-0.229-0.096c-0.064-0.064-0.096-0.141-0.096-0.229v-7.752
		c0-0.088,0.031-0.164,0.096-0.228c0.064-0.064,0.14-0.097,0.229-0.097H28.855z M26.647,65.831h2.148
		c0.576,0,1.021-0.124,1.338-0.372c0.315-0.248,0.474-0.628,0.474-1.141c0-0.512-0.158-0.884-0.474-1.115
		c-0.316-0.232-0.762-0.349-1.338-0.349h-2.148V65.831z"/>
	<path fill="#FFFFFF" d="M32.492,68.602c0-0.319,0.063-0.6,0.192-0.84c0.127-0.24,0.304-0.444,0.527-0.612s0.486-0.304,0.786-0.407
		c0.3-0.104,0.618-0.185,0.954-0.24l1.692-0.276v-0.155c0-0.408-0.135-0.715-0.402-0.919c-0.269-0.203-0.603-0.306-1.002-0.306
		c-0.353,0-0.618,0.064-0.798,0.192c-0.181,0.128-0.334,0.28-0.462,0.456c-0.048,0.063-0.101,0.107-0.156,0.132
		c-0.056,0.023-0.132,0.036-0.229,0.036h-0.359c-0.088,0-0.166-0.032-0.234-0.097c-0.068-0.063-0.098-0.14-0.09-0.228
		c0.016-0.176,0.086-0.355,0.21-0.54c0.124-0.184,0.292-0.348,0.504-0.492c0.212-0.144,0.456-0.262,0.732-0.354
		c0.275-0.092,0.569-0.139,0.882-0.139c0.36,0,0.693,0.053,1.002,0.156c0.308,0.104,0.572,0.256,0.792,0.456
		s0.392,0.448,0.516,0.744s0.187,0.636,0.187,1.02v3.66c0,0.088-0.032,0.164-0.097,0.229c-0.063,0.063-0.14,0.096-0.228,0.096
		h-0.444c-0.088,0-0.164-0.032-0.228-0.096c-0.064-0.064-0.096-0.141-0.096-0.229v-0.492c-0.072,0.152-0.185,0.286-0.336,0.402
		c-0.152,0.116-0.326,0.214-0.522,0.294s-0.4,0.14-0.612,0.18s-0.41,0.061-0.594,0.061c-0.312,0-0.598-0.044-0.858-0.132
		c-0.26-0.088-0.479-0.206-0.659-0.354c-0.181-0.147-0.32-0.325-0.42-0.534C32.542,69.066,32.492,68.842,32.492,68.602z
		 M34.7,69.262c0.288,0,0.552-0.044,0.792-0.132s0.446-0.21,0.618-0.366s0.304-0.342,0.396-0.558s0.139-0.456,0.139-0.721v-0.3
		l-1.416,0.229c-0.504,0.08-0.904,0.208-1.2,0.384s-0.444,0.404-0.444,0.684c0,0.089,0.021,0.177,0.061,0.265
		c0.039,0.088,0.104,0.172,0.191,0.252s0.202,0.144,0.342,0.191C34.318,69.239,34.492,69.262,34.7,69.262z"/>
	<path fill="#FFFFFF" d="M42.656,63.934c0.088,0,0.163,0.032,0.228,0.097c0.064,0.063,0.096,0.14,0.096,0.228v0.384
		c0,0.088-0.031,0.164-0.096,0.229c-0.064,0.063-0.14,0.096-0.228,0.096H41.96c-0.92,0-1.38,0.46-1.38,1.38v3.504
		c0,0.088-0.032,0.164-0.096,0.229c-0.064,0.063-0.141,0.096-0.229,0.096h-0.444c-0.088,0-0.164-0.032-0.228-0.096
		c-0.064-0.064-0.096-0.141-0.096-0.229v-5.592c0-0.088,0.031-0.164,0.096-0.228c0.063-0.064,0.14-0.097,0.228-0.097h0.444
		c0.088,0,0.164,0.032,0.229,0.097c0.063,0.063,0.096,0.14,0.096,0.228v0.372c0.16-0.24,0.352-0.416,0.576-0.528
		c0.224-0.111,0.516-0.168,0.876-0.168H42.656z"/>
	<path fill="#FFFFFF" d="M43.483,68.602c0-0.319,0.063-0.6,0.192-0.84c0.127-0.24,0.304-0.444,0.527-0.612s0.486-0.304,0.786-0.407
		c0.3-0.104,0.618-0.185,0.954-0.24l1.692-0.276v-0.155c0-0.408-0.135-0.715-0.402-0.919c-0.269-0.203-0.603-0.306-1.002-0.306
		c-0.353,0-0.618,0.064-0.798,0.192c-0.181,0.128-0.334,0.28-0.462,0.456c-0.048,0.063-0.101,0.107-0.156,0.132
		c-0.056,0.023-0.132,0.036-0.229,0.036h-0.359c-0.088,0-0.166-0.032-0.234-0.097c-0.068-0.063-0.098-0.14-0.09-0.228
		c0.016-0.176,0.086-0.355,0.21-0.54c0.124-0.184,0.292-0.348,0.504-0.492c0.212-0.144,0.456-0.262,0.732-0.354
		c0.275-0.092,0.569-0.139,0.882-0.139c0.36,0,0.693,0.053,1.002,0.156c0.308,0.104,0.572,0.256,0.792,0.456
		s0.392,0.448,0.516,0.744s0.187,0.636,0.187,1.02v3.66c0,0.088-0.032,0.164-0.097,0.229c-0.063,0.063-0.14,0.096-0.228,0.096
		h-0.444c-0.088,0-0.164-0.032-0.228-0.096c-0.064-0.064-0.096-0.141-0.096-0.229v-0.492c-0.072,0.152-0.185,0.286-0.336,0.402
		c-0.152,0.116-0.326,0.214-0.522,0.294s-0.4,0.14-0.612,0.18s-0.41,0.061-0.594,0.061c-0.312,0-0.598-0.044-0.858-0.132
		c-0.26-0.088-0.479-0.206-0.659-0.354c-0.181-0.147-0.32-0.325-0.42-0.534C43.533,69.066,43.483,68.842,43.483,68.602z
		 M45.691,69.262c0.288,0,0.552-0.044,0.792-0.132s0.446-0.21,0.618-0.366s0.304-0.342,0.396-0.558s0.139-0.456,0.139-0.721v-0.3
		l-1.416,0.229c-0.504,0.08-0.904,0.208-1.2,0.384s-0.444,0.404-0.444,0.684c0,0.089,0.021,0.177,0.061,0.265
		c0.039,0.088,0.104,0.172,0.191,0.252s0.202,0.144,0.342,0.191C45.31,69.239,45.483,69.262,45.691,69.262z"/>
	<path fill="#FFFFFF" d="M56.887,61.774c0.392,0,0.762,0.051,1.11,0.15c0.348,0.101,0.653,0.254,0.918,0.462
		c0.264,0.208,0.474,0.473,0.63,0.792c0.156,0.32,0.234,0.7,0.234,1.14c0,0.44-0.078,0.822-0.234,1.146s-0.366,0.594-0.63,0.81
		c-0.265,0.217-0.57,0.377-0.918,0.48c-0.349,0.104-0.719,0.156-1.11,0.156h-2.208v2.939c0,0.088-0.032,0.164-0.096,0.229
		c-0.064,0.063-0.141,0.096-0.229,0.096h-0.491c-0.089,0-0.164-0.032-0.229-0.096c-0.064-0.064-0.096-0.141-0.096-0.229v-7.752
		c0-0.088,0.031-0.164,0.096-0.228c0.064-0.064,0.14-0.097,0.229-0.097H56.887z M54.679,65.831h2.148
		c0.576,0,1.021-0.124,1.338-0.372c0.315-0.248,0.474-0.628,0.474-1.141c0-0.512-0.158-0.884-0.474-1.115
		c-0.316-0.232-0.762-0.349-1.338-0.349h-2.148V65.831z"/>
	<path fill="#FFFFFF" d="M60.523,68.602c0-0.319,0.063-0.6,0.192-0.84c0.127-0.24,0.304-0.444,0.527-0.612s0.486-0.304,0.786-0.407
		c0.3-0.104,0.618-0.185,0.954-0.24l1.692-0.276v-0.155c0-0.408-0.135-0.715-0.402-0.919c-0.269-0.203-0.603-0.306-1.002-0.306
		c-0.353,0-0.618,0.064-0.798,0.192c-0.181,0.128-0.334,0.28-0.462,0.456c-0.048,0.063-0.101,0.107-0.156,0.132
		c-0.056,0.023-0.132,0.036-0.229,0.036h-0.359c-0.088,0-0.166-0.032-0.234-0.097c-0.068-0.063-0.098-0.14-0.09-0.228
		c0.016-0.176,0.086-0.355,0.21-0.54c0.124-0.184,0.292-0.348,0.504-0.492c0.212-0.144,0.456-0.262,0.732-0.354
		c0.275-0.092,0.569-0.139,0.882-0.139c0.36,0,0.693,0.053,1.002,0.156c0.308,0.104,0.572,0.256,0.792,0.456
		s0.392,0.448,0.516,0.744s0.187,0.636,0.187,1.02v3.66c0,0.088-0.032,0.164-0.097,0.229c-0.063,0.063-0.14,0.096-0.228,0.096
		h-0.444c-0.088,0-0.164-0.032-0.228-0.096c-0.064-0.064-0.096-0.141-0.096-0.229v-0.492c-0.072,0.152-0.185,0.286-0.336,0.402
		c-0.152,0.116-0.326,0.214-0.522,0.294s-0.4,0.14-0.612,0.18s-0.41,0.061-0.594,0.061c-0.312,0-0.598-0.044-0.858-0.132
		c-0.26-0.088-0.479-0.206-0.659-0.354c-0.181-0.147-0.32-0.325-0.42-0.534C60.573,69.066,60.523,68.842,60.523,68.602z
		 M62.731,69.262c0.288,0,0.552-0.044,0.792-0.132s0.446-0.21,0.618-0.366s0.304-0.342,0.396-0.558s0.139-0.456,0.139-0.721v-0.3
		l-1.416,0.229c-0.504,0.08-0.904,0.208-1.2,0.384s-0.444,0.404-0.444,0.684c0,0.089,0.021,0.177,0.061,0.265
		c0.039,0.088,0.104,0.172,0.191,0.252s0.202,0.144,0.342,0.191C62.35,69.239,62.523,69.262,62.731,69.262z"/>
	<path fill="#FFFFFF" d="M68.323,67.474c0.032,0.32,0.102,0.593,0.21,0.816s0.24,0.408,0.396,0.552
		c0.156,0.144,0.33,0.25,0.522,0.318c0.192,0.067,0.388,0.102,0.588,0.102c0.384,0,0.712-0.072,0.984-0.216
		c0.271-0.145,0.483-0.384,0.636-0.72c0.056-0.128,0.114-0.214,0.174-0.259c0.061-0.043,0.134-0.065,0.222-0.065h0.36
		c0.088,0,0.166,0.032,0.234,0.096c0.067,0.064,0.098,0.141,0.09,0.229c-0.008,0.191-0.07,0.401-0.187,0.63
		c-0.115,0.228-0.287,0.439-0.516,0.636c-0.228,0.196-0.508,0.362-0.84,0.498s-0.718,0.204-1.158,0.204s-0.83-0.072-1.17-0.216
		c-0.34-0.145-0.628-0.34-0.864-0.588c-0.235-0.248-0.42-0.54-0.552-0.876c-0.132-0.337-0.206-0.696-0.222-1.08
		c-0.009-0.128-0.015-0.286-0.019-0.475c-0.004-0.188,0.002-0.35,0.019-0.485c0.031-0.385,0.113-0.744,0.246-1.08
		c0.132-0.336,0.313-0.628,0.546-0.876c0.231-0.248,0.516-0.444,0.852-0.588c0.336-0.145,0.724-0.217,1.164-0.217
		s0.826,0.068,1.158,0.204c0.332,0.137,0.612,0.303,0.84,0.498c0.229,0.196,0.4,0.408,0.516,0.636
		c0.116,0.229,0.179,0.438,0.187,0.631c0.008,0.088-0.022,0.164-0.09,0.228c-0.068,0.064-0.146,0.096-0.234,0.096h-0.36
		c-0.088,0-0.161-0.021-0.222-0.065c-0.06-0.044-0.118-0.13-0.174-0.258c-0.152-0.336-0.364-0.576-0.636-0.721
		c-0.272-0.144-0.601-0.216-0.984-0.216c-0.2,0-0.398,0.034-0.594,0.103c-0.196,0.067-0.372,0.174-0.528,0.317
		c-0.156,0.145-0.288,0.328-0.396,0.552c-0.108,0.225-0.175,0.496-0.198,0.816C68.299,66.93,68.299,67.21,68.323,67.474z"/>
	<path fill="#FFFFFF" d="M75.392,62.663c0,0.088-0.032,0.164-0.097,0.228c-0.063,0.064-0.14,0.096-0.228,0.096h-0.685
		c-0.088,0-0.164-0.031-0.228-0.096c-0.064-0.063-0.096-0.14-0.096-0.228v-0.685c0-0.088,0.031-0.164,0.096-0.228
		c0.063-0.064,0.14-0.096,0.228-0.096h0.685c0.088,0,0.164,0.031,0.228,0.096c0.064,0.063,0.097,0.14,0.097,0.228V62.663z
		 M75.271,69.85c0,0.088-0.032,0.164-0.096,0.229c-0.064,0.063-0.141,0.096-0.229,0.096h-0.444c-0.088,0-0.164-0.032-0.228-0.096
		c-0.064-0.064-0.096-0.141-0.096-0.229v-5.592c0-0.088,0.031-0.164,0.096-0.228c0.063-0.064,0.14-0.097,0.228-0.097h0.444
		c0.088,0,0.164,0.032,0.229,0.097c0.063,0.063,0.096,0.14,0.096,0.228V69.85z"/>
	<path fill="#FFFFFF" d="M76.783,66.455c0.031-0.368,0.12-0.712,0.264-1.032s0.332-0.6,0.564-0.84
		c0.231-0.24,0.51-0.428,0.834-0.564c0.323-0.136,0.686-0.204,1.086-0.204c0.432,0,0.817,0.07,1.157,0.21
		c0.341,0.141,0.631,0.343,0.87,0.606c0.24,0.264,0.424,0.584,0.553,0.96c0.128,0.376,0.191,0.796,0.191,1.26v0.324
		c0,0.088-0.032,0.164-0.096,0.228c-0.064,0.064-0.141,0.097-0.229,0.097h-4.128v0.072c0.017,0.544,0.183,0.962,0.498,1.254
		c0.316,0.292,0.71,0.438,1.183,0.438c0.439,0,0.77-0.062,0.989-0.186c0.221-0.124,0.398-0.263,0.534-0.414
		c0.064-0.064,0.12-0.108,0.168-0.132c0.048-0.024,0.12-0.036,0.216-0.036h0.36c0.088,0,0.168,0.032,0.24,0.096
		c0.072,0.064,0.1,0.14,0.084,0.228c-0.024,0.145-0.092,0.303-0.204,0.475s-0.274,0.332-0.486,0.479
		c-0.212,0.148-0.476,0.272-0.792,0.372c-0.315,0.101-0.686,0.15-1.109,0.15c-0.4,0-0.761-0.07-1.08-0.21
		c-0.32-0.14-0.599-0.332-0.834-0.576c-0.236-0.244-0.427-0.532-0.57-0.864s-0.232-0.693-0.264-1.086
		C76.743,67.191,76.743,66.823,76.783,66.455z M77.851,66.491h3.372v-0.036c0-0.488-0.154-0.878-0.462-1.17
		s-0.718-0.438-1.229-0.438c-0.232,0-0.448,0.038-0.648,0.114s-0.376,0.184-0.528,0.324c-0.151,0.14-0.271,0.31-0.359,0.51
		s-0.137,0.42-0.145,0.66V66.491z"/>
	<path fill="#FFFFFF" d="M89.299,69.85c0,0.088-0.032,0.164-0.097,0.229c-0.063,0.063-0.14,0.096-0.228,0.096H88.53
		c-0.088,0-0.164-0.032-0.228-0.096c-0.064-0.064-0.097-0.141-0.097-0.229v-3.168c0-0.616-0.147-1.076-0.443-1.38
		s-0.708-0.456-1.236-0.456c-0.504,0-0.91,0.152-1.218,0.456c-0.309,0.304-0.462,0.764-0.462,1.38v3.168
		c0,0.088-0.032,0.164-0.096,0.229c-0.064,0.063-0.141,0.096-0.229,0.096h-0.444c-0.088,0-0.164-0.032-0.228-0.096
		c-0.064-0.064-0.096-0.141-0.096-0.229v-5.592c0-0.088,0.031-0.164,0.096-0.228c0.063-0.064,0.14-0.097,0.228-0.097h0.444
		c0.088,0,0.164,0.032,0.229,0.097c0.063,0.063,0.096,0.14,0.096,0.228v0.372c0.151-0.2,0.378-0.386,0.678-0.558
		c0.3-0.173,0.694-0.259,1.182-0.259c0.376,0,0.725,0.062,1.045,0.187c0.319,0.124,0.594,0.3,0.821,0.527
		c0.229,0.229,0.406,0.511,0.534,0.847s0.192,0.712,0.192,1.128V69.85z"/>
	<path fill="#FFFFFF" d="M92.575,68.075c0,0.151,0.014,0.294,0.042,0.426c0.027,0.132,0.078,0.246,0.149,0.342
		c0.072,0.096,0.175,0.17,0.307,0.222c0.132,0.053,0.302,0.078,0.51,0.078h0.636c0.088,0,0.164,0.032,0.229,0.097
		c0.063,0.063,0.096,0.14,0.096,0.228v0.384c0,0.088-0.032,0.164-0.096,0.229c-0.064,0.063-0.141,0.096-0.229,0.096h-0.756
		c-0.696,0-1.2-0.18-1.512-0.54c-0.312-0.36-0.468-0.88-0.468-1.56v-3.108h-0.889c-0.088,0-0.164-0.032-0.228-0.096
		c-0.064-0.064-0.097-0.141-0.097-0.229v-0.384c0-0.088,0.032-0.164,0.097-0.228c0.063-0.064,0.14-0.097,0.228-0.097h0.889v-1.956
		c0-0.088,0.031-0.164,0.096-0.228c0.063-0.064,0.14-0.096,0.228-0.096h0.444c0.088,0,0.164,0.031,0.228,0.096
		c0.064,0.063,0.097,0.14,0.097,0.228v1.956h1.523c0.088,0,0.164,0.032,0.229,0.097c0.063,0.063,0.096,0.14,0.096,0.228v0.384
		c0,0.088-0.032,0.164-0.096,0.229c-0.064,0.063-0.141,0.096-0.229,0.096h-1.523V68.075z"/>
	<path fill="#FFFFFF" d="M95.455,66.455c0.031-0.368,0.12-0.712,0.264-1.032s0.332-0.6,0.564-0.84
		c0.231-0.24,0.51-0.428,0.834-0.564c0.323-0.136,0.686-0.204,1.086-0.204c0.432,0,0.817,0.07,1.157,0.21
		c0.341,0.141,0.631,0.343,0.87,0.606c0.24,0.264,0.424,0.584,0.553,0.96c0.128,0.376,0.191,0.796,0.191,1.26v0.324
		c0,0.088-0.032,0.164-0.096,0.228c-0.064,0.064-0.141,0.097-0.229,0.097h-4.128v0.072c0.017,0.544,0.183,0.962,0.498,1.254
		c0.316,0.292,0.71,0.438,1.183,0.438c0.439,0,0.77-0.062,0.989-0.186c0.221-0.124,0.398-0.263,0.534-0.414
		c0.064-0.064,0.12-0.108,0.168-0.132c0.048-0.024,0.12-0.036,0.216-0.036h0.36c0.088,0,0.168,0.032,0.24,0.096
		c0.072,0.064,0.1,0.14,0.084,0.228c-0.024,0.145-0.092,0.303-0.204,0.475s-0.274,0.332-0.486,0.479
		c-0.212,0.148-0.476,0.272-0.792,0.372c-0.315,0.101-0.686,0.15-1.109,0.15c-0.4,0-0.761-0.07-1.08-0.21
		c-0.32-0.14-0.599-0.332-0.834-0.576c-0.236-0.244-0.427-0.532-0.57-0.864s-0.232-0.693-0.264-1.086
		C95.415,67.191,95.415,66.823,95.455,66.455z M96.522,66.491h3.372v-0.036c0-0.488-0.154-0.878-0.462-1.17
		s-0.718-0.438-1.229-0.438c-0.232,0-0.448,0.038-0.648,0.114s-0.376,0.184-0.528,0.324c-0.151,0.14-0.271,0.31-0.359,0.51
		s-0.137,0.42-0.145,0.66V66.491z"/>
	<path fill="#FFFFFF" d="M105.979,68.447c0-0.152-0.042-0.278-0.126-0.379c-0.084-0.1-0.21-0.186-0.378-0.258
		c-0.168-0.071-0.383-0.14-0.643-0.204c-0.26-0.063-0.562-0.132-0.905-0.204c-0.648-0.136-1.103-0.361-1.362-0.678
		c-0.26-0.315-0.39-0.686-0.39-1.109c0-0.24,0.048-0.469,0.144-0.685s0.24-0.408,0.432-0.576c0.192-0.168,0.435-0.3,0.727-0.396
		s0.634-0.145,1.025-0.145c0.393,0,0.734,0.044,1.026,0.133c0.292,0.088,0.538,0.199,0.738,0.336
		c0.199,0.136,0.352,0.281,0.456,0.438c0.104,0.156,0.159,0.306,0.168,0.45c0.008,0.088-0.022,0.164-0.09,0.228
		c-0.068,0.064-0.146,0.097-0.234,0.097h-0.396c-0.048,0-0.105-0.01-0.174-0.03c-0.067-0.02-0.13-0.066-0.186-0.138
		c-0.104-0.137-0.258-0.25-0.462-0.343c-0.204-0.092-0.486-0.138-0.847-0.138c-0.367,0-0.666,0.068-0.894,0.204
		c-0.229,0.136-0.342,0.324-0.342,0.564c0,0.151,0.031,0.273,0.096,0.365c0.064,0.093,0.168,0.173,0.312,0.24
		c0.144,0.068,0.334,0.13,0.569,0.187c0.236,0.056,0.53,0.124,0.882,0.203c0.368,0.08,0.677,0.183,0.925,0.307
		c0.247,0.124,0.447,0.264,0.6,0.42c0.151,0.156,0.26,0.328,0.324,0.516c0.063,0.188,0.096,0.387,0.096,0.595
		c0,0.239-0.058,0.472-0.174,0.695c-0.116,0.225-0.282,0.42-0.498,0.588s-0.479,0.305-0.786,0.408
		c-0.308,0.104-0.658,0.156-1.05,0.156c-0.393,0-0.74-0.048-1.044-0.145c-0.305-0.096-0.564-0.214-0.78-0.354
		s-0.382-0.292-0.498-0.456s-0.178-0.318-0.186-0.462c-0.009-0.088,0.02-0.164,0.084-0.229c0.063-0.063,0.144-0.096,0.239-0.096
		h0.433c0.048,0,0.104,0.006,0.168,0.019c0.063,0.012,0.124,0.058,0.18,0.138c0.128,0.176,0.304,0.312,0.528,0.408
		c0.224,0.096,0.516,0.144,0.876,0.144c0.176,0,0.35-0.02,0.521-0.06s0.324-0.097,0.456-0.168c0.133-0.072,0.238-0.158,0.318-0.259
		C105.938,68.676,105.979,68.566,105.979,68.447z"/>
	<path fill="#FFFFFF" d="M112.951,72.167c-0.024,0.063-0.064,0.128-0.12,0.191c-0.057,0.064-0.132,0.097-0.229,0.097h-0.491
		c-0.08,0-0.148-0.028-0.204-0.084c-0.057-0.057-0.084-0.124-0.084-0.204c0-0.032,0.004-0.061,0.012-0.084l1.152-2.508l-2.376-5.269
		c-0.009-0.023-0.013-0.052-0.013-0.084c0-0.08,0.028-0.147,0.084-0.204c0.056-0.056,0.124-0.084,0.204-0.084h0.492
		c0.096,0,0.172,0.032,0.228,0.097c0.057,0.063,0.097,0.128,0.12,0.191l1.849,4.08l1.872-4.08c0.023-0.063,0.063-0.128,0.119-0.191
		c0.057-0.064,0.133-0.097,0.229-0.097h0.492c0.08,0,0.147,0.028,0.204,0.084c0.056,0.057,0.084,0.124,0.084,0.204
		c0,0.032-0.005,0.061-0.013,0.084L112.951,72.167z"/>
	<path fill="#FFFFFF" d="M125.623,61.774c0.088,0,0.164,0.032,0.228,0.097c0.064,0.063,0.097,0.14,0.097,0.228v0.433
		c0,0.088-0.032,0.164-0.097,0.228c-0.063,0.064-0.14,0.096-0.228,0.096h-3.948v2.772h3.708c0.088,0,0.164,0.032,0.229,0.096
		c0.063,0.064,0.096,0.141,0.096,0.229v0.432c0,0.088-0.032,0.164-0.096,0.228c-0.064,0.064-0.141,0.097-0.229,0.097h-3.708v3.144
		c0,0.088-0.032,0.164-0.096,0.229c-0.064,0.063-0.141,0.096-0.229,0.096h-0.491c-0.089,0-0.164-0.032-0.229-0.096
		c-0.064-0.064-0.096-0.141-0.096-0.229v-7.752c0-0.088,0.031-0.164,0.096-0.228c0.064-0.064,0.14-0.097,0.229-0.097H125.623z"/>
	<path fill="#FFFFFF" d="M126.547,68.602c0-0.319,0.063-0.6,0.192-0.84c0.127-0.24,0.304-0.444,0.527-0.612s0.486-0.304,0.786-0.407
		c0.3-0.104,0.618-0.185,0.954-0.24l1.692-0.276v-0.155c0-0.408-0.135-0.715-0.402-0.919c-0.269-0.203-0.603-0.306-1.002-0.306
		c-0.353,0-0.618,0.064-0.798,0.192c-0.181,0.128-0.334,0.28-0.462,0.456c-0.048,0.063-0.101,0.107-0.156,0.132
		c-0.056,0.023-0.132,0.036-0.229,0.036h-0.359c-0.088,0-0.166-0.032-0.234-0.097c-0.068-0.063-0.098-0.14-0.09-0.228
		c0.016-0.176,0.086-0.355,0.21-0.54c0.124-0.184,0.292-0.348,0.504-0.492c0.212-0.144,0.456-0.262,0.732-0.354
		c0.275-0.092,0.569-0.139,0.882-0.139c0.36,0,0.693,0.053,1.002,0.156c0.308,0.104,0.572,0.256,0.792,0.456
		s0.392,0.448,0.516,0.744s0.187,0.636,0.187,1.02v3.66c0,0.088-0.032,0.164-0.097,0.229c-0.063,0.063-0.14,0.096-0.228,0.096
		h-0.444c-0.088,0-0.164-0.032-0.228-0.096c-0.064-0.064-0.096-0.141-0.096-0.229v-0.492c-0.072,0.152-0.185,0.286-0.336,0.402
		c-0.152,0.116-0.326,0.214-0.522,0.294s-0.4,0.14-0.612,0.18s-0.41,0.061-0.594,0.061c-0.312,0-0.598-0.044-0.858-0.132
		c-0.26-0.088-0.479-0.206-0.659-0.354c-0.181-0.147-0.32-0.325-0.42-0.534C126.597,69.066,126.547,68.842,126.547,68.602z
		 M128.755,69.262c0.288,0,0.552-0.044,0.792-0.132s0.446-0.21,0.618-0.366s0.304-0.342,0.396-0.558s0.139-0.456,0.139-0.721v-0.3
		l-1.416,0.229c-0.504,0.08-0.904,0.208-1.2,0.384s-0.444,0.404-0.444,0.684c0,0.089,0.021,0.177,0.061,0.265
		c0.039,0.088,0.104,0.172,0.191,0.252s0.202,0.144,0.342,0.191C128.373,69.239,128.547,69.262,128.755,69.262z"/>
	<path fill="#FFFFFF" d="M134.635,64.63c0.072-0.096,0.156-0.194,0.252-0.294s0.206-0.188,0.33-0.264s0.27-0.139,0.438-0.187
		s0.364-0.072,0.588-0.072c0.488,0,0.893,0.091,1.212,0.271c0.32,0.18,0.572,0.438,0.757,0.773c0.104-0.144,0.214-0.279,0.33-0.407
		c0.115-0.128,0.252-0.24,0.407-0.336c0.156-0.097,0.332-0.17,0.528-0.223c0.196-0.052,0.426-0.078,0.69-0.078
		c0.808,0,1.396,0.242,1.764,0.727s0.552,1.146,0.552,1.985v3.324c0,0.088-0.032,0.164-0.096,0.229
		c-0.064,0.063-0.141,0.096-0.229,0.096h-0.443c-0.089,0-0.164-0.032-0.229-0.096c-0.063-0.064-0.096-0.141-0.096-0.229v-3.204
		c0-0.615-0.12-1.069-0.36-1.361c-0.239-0.292-0.592-0.438-1.056-0.438c-0.424,0-0.767,0.141-1.026,0.42
		c-0.26,0.28-0.39,0.712-0.39,1.296v3.288c0,0.088-0.032,0.164-0.096,0.229c-0.064,0.063-0.141,0.096-0.229,0.096h-0.443
		c-0.089,0-0.164-0.032-0.229-0.096c-0.064-0.064-0.096-0.141-0.096-0.229v-3.204c0-0.615-0.12-1.069-0.36-1.361
		s-0.592-0.438-1.056-0.438c-0.425,0-0.767,0.141-1.026,0.42c-0.26,0.28-0.39,0.712-0.39,1.296v3.288
		c0,0.088-0.032,0.164-0.096,0.229c-0.064,0.063-0.141,0.096-0.229,0.096h-0.444c-0.088,0-0.164-0.032-0.228-0.096
		c-0.064-0.064-0.096-0.141-0.096-0.229v-5.592c0-0.088,0.031-0.164,0.096-0.228c0.063-0.064,0.14-0.097,0.228-0.097h0.444
		c0.088,0,0.164,0.032,0.229,0.097c0.063,0.063,0.096,0.14,0.096,0.228V64.63z"/>
	<path fill="#FFFFFF" d="M145.435,62.663c0,0.088-0.032,0.164-0.097,0.228c-0.063,0.064-0.14,0.096-0.228,0.096h-0.685
		c-0.088,0-0.164-0.031-0.228-0.096c-0.064-0.063-0.096-0.14-0.096-0.228v-0.685c0-0.088,0.031-0.164,0.096-0.228
		c0.063-0.064,0.14-0.096,0.228-0.096h0.685c0.088,0,0.164,0.031,0.228,0.096c0.064,0.063,0.097,0.14,0.097,0.228V62.663z
		 M145.314,69.85c0,0.088-0.032,0.164-0.096,0.229c-0.064,0.063-0.141,0.096-0.229,0.096h-0.444c-0.088,0-0.164-0.032-0.228-0.096
		c-0.064-0.064-0.096-0.141-0.096-0.229v-5.592c0-0.088,0.031-0.164,0.096-0.228c0.063-0.064,0.14-0.097,0.228-0.097h0.444
		c0.088,0,0.164,0.032,0.229,0.097c0.063,0.063,0.096,0.14,0.096,0.228V69.85z"/>
	<path fill="#FFFFFF" d="M148.206,69.85c0,0.088-0.032,0.164-0.096,0.229c-0.064,0.063-0.141,0.096-0.229,0.096h-0.444
		c-0.088,0-0.164-0.032-0.228-0.096c-0.064-0.064-0.096-0.141-0.096-0.229v-7.872c0-0.088,0.031-0.164,0.096-0.228
		c0.063-0.064,0.14-0.096,0.228-0.096h0.444c0.088,0,0.164,0.031,0.229,0.096c0.063,0.063,0.096,0.14,0.096,0.228V69.85z"/>
	<path fill="#FFFFFF" d="M151.219,62.663c0,0.088-0.032,0.164-0.097,0.228c-0.063,0.064-0.14,0.096-0.228,0.096h-0.685
		c-0.088,0-0.164-0.031-0.228-0.096c-0.064-0.063-0.096-0.14-0.096-0.228v-0.685c0-0.088,0.031-0.164,0.096-0.228
		c0.063-0.064,0.14-0.096,0.228-0.096h0.685c0.088,0,0.164,0.031,0.228,0.096c0.064,0.063,0.097,0.14,0.097,0.228V62.663z
		 M151.099,69.85c0,0.088-0.032,0.164-0.096,0.229c-0.064,0.063-0.141,0.096-0.229,0.096h-0.444c-0.088,0-0.164-0.032-0.228-0.096
		c-0.064-0.064-0.096-0.141-0.096-0.229v-5.592c0-0.088,0.031-0.164,0.096-0.228c0.063-0.064,0.14-0.097,0.228-0.097h0.444
		c0.088,0,0.164,0.032,0.229,0.097c0.063,0.063,0.096,0.14,0.096,0.228V69.85z"/>
	<path fill="#FFFFFF" d="M152.454,68.602c0-0.319,0.063-0.6,0.192-0.84c0.127-0.24,0.304-0.444,0.527-0.612s0.486-0.304,0.786-0.407
		c0.3-0.104,0.618-0.185,0.954-0.24l1.692-0.276v-0.155c0-0.408-0.135-0.715-0.402-0.919c-0.269-0.203-0.603-0.306-1.002-0.306
		c-0.353,0-0.618,0.064-0.798,0.192c-0.181,0.128-0.334,0.28-0.462,0.456c-0.048,0.063-0.101,0.107-0.156,0.132
		c-0.056,0.023-0.132,0.036-0.229,0.036h-0.359c-0.088,0-0.166-0.032-0.234-0.097c-0.068-0.063-0.098-0.14-0.09-0.228
		c0.016-0.176,0.086-0.355,0.21-0.54c0.124-0.184,0.292-0.348,0.504-0.492c0.212-0.144,0.456-0.262,0.732-0.354
		c0.275-0.092,0.569-0.139,0.882-0.139c0.36,0,0.693,0.053,1.002,0.156c0.308,0.104,0.572,0.256,0.792,0.456
		s0.392,0.448,0.516,0.744s0.187,0.636,0.187,1.02v3.66c0,0.088-0.032,0.164-0.097,0.229c-0.063,0.063-0.14,0.096-0.228,0.096
		h-0.444c-0.088,0-0.164-0.032-0.228-0.096c-0.064-0.064-0.096-0.141-0.096-0.229v-0.492c-0.072,0.152-0.185,0.286-0.336,0.402
		c-0.152,0.116-0.326,0.214-0.522,0.294s-0.4,0.14-0.612,0.18s-0.41,0.061-0.594,0.061c-0.312,0-0.598-0.044-0.858-0.132
		c-0.26-0.088-0.479-0.206-0.659-0.354c-0.181-0.147-0.32-0.325-0.42-0.534C152.504,69.066,152.454,68.842,152.454,68.602z
		 M154.662,69.262c0.288,0,0.552-0.044,0.792-0.132s0.446-0.21,0.618-0.366s0.304-0.342,0.396-0.558s0.139-0.456,0.139-0.721v-0.3
		l-1.416,0.229c-0.504,0.08-0.904,0.208-1.2,0.384s-0.444,0.404-0.444,0.684c0,0.089,0.021,0.177,0.061,0.265
		c0.039,0.088,0.104,0.172,0.191,0.252s0.202,0.144,0.342,0.191C154.28,69.239,154.454,69.262,154.662,69.262z"/>
	<path fill="#FFFFFF" d="M162.618,63.934c0.088,0,0.163,0.032,0.228,0.097c0.064,0.063,0.096,0.14,0.096,0.228v0.384
		c0,0.088-0.031,0.164-0.096,0.229c-0.064,0.063-0.14,0.096-0.228,0.096h-0.696c-0.92,0-1.38,0.46-1.38,1.38v3.504
		c0,0.088-0.032,0.164-0.096,0.229c-0.064,0.063-0.141,0.096-0.229,0.096h-0.444c-0.088,0-0.164-0.032-0.228-0.096
		c-0.064-0.064-0.096-0.141-0.096-0.229v-5.592c0-0.088,0.031-0.164,0.096-0.228c0.063-0.064,0.14-0.097,0.228-0.097h0.444
		c0.088,0,0.164,0.032,0.229,0.097c0.063,0.063,0.096,0.14,0.096,0.228v0.372c0.16-0.24,0.352-0.416,0.576-0.528
		c0.224-0.111,0.516-0.168,0.876-0.168H162.618z"/>
	<path fill="#FFFFFF" d="M163.566,66.455c0.031-0.368,0.12-0.712,0.264-1.032s0.332-0.6,0.564-0.84
		c0.231-0.24,0.51-0.428,0.834-0.564c0.323-0.136,0.686-0.204,1.086-0.204c0.432,0,0.817,0.07,1.157,0.21
		c0.341,0.141,0.631,0.343,0.87,0.606c0.24,0.264,0.424,0.584,0.553,0.96c0.128,0.376,0.191,0.796,0.191,1.26v0.324
		c0,0.088-0.032,0.164-0.096,0.228c-0.064,0.064-0.141,0.097-0.229,0.097h-4.128v0.072c0.017,0.544,0.183,0.962,0.498,1.254
		c0.316,0.292,0.71,0.438,1.183,0.438c0.439,0,0.77-0.062,0.989-0.186c0.221-0.124,0.398-0.263,0.534-0.414
		c0.064-0.064,0.12-0.108,0.168-0.132c0.048-0.024,0.12-0.036,0.216-0.036h0.36c0.088,0,0.168,0.032,0.24,0.096
		c0.072,0.064,0.1,0.14,0.084,0.228c-0.024,0.145-0.092,0.303-0.204,0.475s-0.274,0.332-0.486,0.479
		c-0.212,0.148-0.476,0.272-0.792,0.372c-0.315,0.101-0.686,0.15-1.109,0.15c-0.4,0-0.761-0.07-1.08-0.21
		c-0.32-0.14-0.599-0.332-0.834-0.576c-0.236-0.244-0.427-0.532-0.57-0.864s-0.232-0.693-0.264-1.086
		C163.526,67.191,163.526,66.823,163.566,66.455z M164.634,66.491h3.372v-0.036c0-0.488-0.154-0.878-0.462-1.17
		s-0.718-0.438-1.229-0.438c-0.232,0-0.448,0.038-0.648,0.114s-0.376,0.184-0.528,0.324c-0.151,0.14-0.271,0.31-0.359,0.51
		s-0.137,0.42-0.145,0.66V66.491z"/>
	<path fill="#FFFFFF" d="M174.09,68.447c0-0.152-0.042-0.278-0.126-0.379c-0.084-0.1-0.21-0.186-0.378-0.258
		c-0.168-0.071-0.383-0.14-0.643-0.204c-0.26-0.063-0.562-0.132-0.905-0.204c-0.648-0.136-1.103-0.361-1.362-0.678
		c-0.26-0.315-0.39-0.686-0.39-1.109c0-0.24,0.048-0.469,0.144-0.685s0.24-0.408,0.432-0.576c0.192-0.168,0.435-0.3,0.727-0.396
		s0.634-0.145,1.025-0.145c0.393,0,0.734,0.044,1.026,0.133c0.292,0.088,0.538,0.199,0.738,0.336
		c0.199,0.136,0.352,0.281,0.456,0.438c0.104,0.156,0.159,0.306,0.168,0.45c0.008,0.088-0.022,0.164-0.09,0.228
		c-0.068,0.064-0.146,0.097-0.234,0.097h-0.396c-0.048,0-0.105-0.01-0.174-0.03c-0.067-0.02-0.13-0.066-0.186-0.138
		c-0.104-0.137-0.258-0.25-0.462-0.343c-0.204-0.092-0.486-0.138-0.847-0.138c-0.367,0-0.666,0.068-0.894,0.204
		c-0.229,0.136-0.342,0.324-0.342,0.564c0,0.151,0.031,0.273,0.096,0.365c0.064,0.093,0.168,0.173,0.312,0.24
		c0.144,0.068,0.334,0.13,0.569,0.187c0.236,0.056,0.53,0.124,0.882,0.203c0.368,0.08,0.677,0.183,0.925,0.307
		c0.247,0.124,0.447,0.264,0.6,0.42c0.151,0.156,0.26,0.328,0.324,0.516c0.063,0.188,0.096,0.387,0.096,0.595
		c0,0.239-0.058,0.472-0.174,0.695c-0.116,0.225-0.282,0.42-0.498,0.588s-0.479,0.305-0.786,0.408
		c-0.308,0.104-0.658,0.156-1.05,0.156c-0.393,0-0.74-0.048-1.044-0.145c-0.305-0.096-0.564-0.214-0.78-0.354
		s-0.382-0.292-0.498-0.456s-0.178-0.318-0.186-0.462c-0.009-0.088,0.02-0.164,0.084-0.229c0.063-0.063,0.144-0.096,0.239-0.096
		h0.433c0.048,0,0.104,0.006,0.168,0.019c0.063,0.012,0.124,0.058,0.18,0.138c0.128,0.176,0.304,0.312,0.528,0.408
		c0.224,0.096,0.516,0.144,0.876,0.144c0.176,0,0.35-0.02,0.521-0.06s0.324-0.097,0.456-0.168c0.133-0.072,0.238-0.158,0.318-0.259
		C174.05,68.676,174.09,68.566,174.09,68.447z"/>
</g>
<g>
	<path fill="#FFFFFF" d="M40.731,115.476c-0.023,0.664-0.023,1.336,0,2.016c0.032,0.912,0.26,1.572,0.685,1.98
		c0.424,0.408,1.004,0.612,1.739,0.612c0.32,0,0.614-0.03,0.882-0.091c0.269-0.06,0.505-0.161,0.708-0.306
		c0.204-0.144,0.379-0.334,0.522-0.57c0.144-0.235,0.256-0.533,0.336-0.894c0.016-0.096,0.048-0.162,0.096-0.198
		c0.049-0.036,0.104-0.054,0.168-0.054h0.24c0.072,0,0.134,0.022,0.187,0.065c0.052,0.045,0.073,0.103,0.065,0.175
		c-0.016,0.288-0.084,0.584-0.204,0.888s-0.308,0.582-0.563,0.834s-0.584,0.46-0.984,0.624s-0.884,0.246-1.452,0.246
		c-0.544,0-1.012-0.082-1.403-0.246c-0.393-0.164-0.719-0.39-0.979-0.678s-0.454-0.63-0.582-1.026
		c-0.128-0.396-0.2-0.83-0.216-1.302c-0.017-0.328-0.024-0.68-0.024-1.057c0-0.375,0.008-0.735,0.024-1.079
		c0.016-0.464,0.088-0.896,0.216-1.297c0.128-0.399,0.322-0.743,0.582-1.031s0.586-0.515,0.979-0.679
		c0.392-0.163,0.859-0.245,1.403-0.245c0.568,0,1.052,0.082,1.452,0.245c0.4,0.164,0.729,0.372,0.984,0.624s0.443,0.53,0.563,0.834
		c0.12,0.305,0.188,0.601,0.204,0.889c0.008,0.071-0.014,0.13-0.065,0.174c-0.053,0.044-0.114,0.065-0.187,0.065h-0.24
		c-0.063,0-0.119-0.018-0.168-0.054c-0.048-0.036-0.08-0.102-0.096-0.198c-0.08-0.359-0.192-0.657-0.336-0.894
		s-0.318-0.426-0.522-0.57c-0.203-0.144-0.439-0.246-0.708-0.306c-0.268-0.06-0.562-0.09-0.882-0.09
		c-0.735,0-1.315,0.204-1.739,0.611C40.991,113.904,40.764,114.564,40.731,115.476z"/>
	<path fill="#FFFFFF" d="M50.967,112.165c0.464,0,0.889,0.067,1.272,0.203c0.384,0.137,0.714,0.343,0.99,0.618
		c0.275,0.276,0.491,0.62,0.647,1.032s0.242,0.898,0.258,1.458c0.017,0.36,0.024,0.696,0.024,1.008c0,0.312-0.008,0.648-0.024,1.008
		c-0.031,1.137-0.319,1.973-0.863,2.509c-0.545,0.536-1.312,0.804-2.305,0.804c-1,0-1.77-0.268-2.31-0.804s-0.826-1.372-0.858-2.509
		c-0.016-0.359-0.023-0.695-0.023-1.008c0-0.312,0.008-0.647,0.023-1.008c0.017-0.56,0.103-1.046,0.258-1.458
		c0.156-0.412,0.372-0.756,0.648-1.032c0.276-0.275,0.604-0.481,0.984-0.618C50.069,112.232,50.495,112.165,50.967,112.165z
		 M50.967,112.884c-0.336,0-0.647,0.05-0.936,0.149c-0.288,0.101-0.54,0.259-0.756,0.475s-0.387,0.492-0.511,0.828
		s-0.193,0.735-0.21,1.199c-0.008,0.185-0.014,0.353-0.018,0.505c-0.004,0.151-0.006,0.3-0.006,0.443
		c0,0.145,0.002,0.294,0.006,0.45s0.01,0.322,0.018,0.498c0.017,0.472,0.086,0.874,0.21,1.206s0.292,0.605,0.505,0.822
		c0.212,0.216,0.462,0.374,0.75,0.474c0.287,0.101,0.604,0.15,0.947,0.15s0.66-0.05,0.948-0.15c0.288-0.1,0.538-0.258,0.75-0.474
		c0.212-0.217,0.38-0.49,0.504-0.822s0.194-0.734,0.21-1.206c0.008-0.176,0.013-0.342,0.013-0.498s0-0.306,0-0.45
		c0-0.144,0-0.292,0-0.443c0-0.152-0.005-0.32-0.013-0.505c-0.016-0.464-0.086-0.863-0.21-1.199s-0.294-0.612-0.51-0.828
		s-0.468-0.374-0.756-0.475C51.615,112.934,51.303,112.884,50.967,112.884z"/>
	<path fill="#FFFFFF" d="M56.823,113.796v6.624c0,0.176-0.092,0.264-0.275,0.264h-0.217c-0.176,0-0.264-0.088-0.264-0.264v-7.86
		c0-0.184,0.088-0.276,0.264-0.276h0.252c0.08,0,0.139,0.021,0.175,0.061c0.035,0.04,0.062,0.068,0.078,0.084l4.428,6.768v-6.636
		c0-0.184,0.088-0.276,0.264-0.276h0.216c0.185,0,0.276,0.093,0.276,0.276v7.848c0,0.185-0.088,0.276-0.264,0.276h-0.265
		c-0.08,0-0.138-0.02-0.174-0.06s-0.062-0.068-0.078-0.084L56.823,113.796z"/>
	<path fill="#FFFFFF" d="M67.119,112.165c0.464,0,0.889,0.067,1.272,0.203c0.384,0.137,0.714,0.343,0.99,0.618
		c0.275,0.276,0.491,0.62,0.647,1.032s0.242,0.898,0.258,1.458c0.017,0.36,0.024,0.696,0.024,1.008c0,0.312-0.008,0.648-0.024,1.008
		c-0.031,1.137-0.319,1.973-0.863,2.509c-0.545,0.536-1.312,0.804-2.305,0.804c-1,0-1.77-0.268-2.31-0.804s-0.826-1.372-0.858-2.509
		c-0.016-0.359-0.023-0.695-0.023-1.008c0-0.312,0.008-0.647,0.023-1.008c0.017-0.56,0.103-1.046,0.258-1.458
		c0.156-0.412,0.372-0.756,0.648-1.032c0.276-0.275,0.604-0.481,0.984-0.618C66.222,112.232,66.647,112.165,67.119,112.165z
		 M67.119,112.884c-0.336,0-0.647,0.05-0.936,0.149c-0.288,0.101-0.54,0.259-0.756,0.475s-0.387,0.492-0.511,0.828
		s-0.193,0.735-0.21,1.199c-0.008,0.185-0.014,0.353-0.018,0.505c-0.004,0.151-0.006,0.3-0.006,0.443
		c0,0.145,0.002,0.294,0.006,0.45s0.01,0.322,0.018,0.498c0.017,0.472,0.086,0.874,0.21,1.206s0.292,0.605,0.505,0.822
		c0.212,0.216,0.462,0.374,0.75,0.474c0.287,0.101,0.604,0.15,0.947,0.15s0.66-0.05,0.948-0.15c0.288-0.1,0.538-0.258,0.75-0.474
		c0.212-0.217,0.38-0.49,0.504-0.822s0.194-0.734,0.21-1.206c0.008-0.176,0.013-0.342,0.013-0.498s0-0.306,0-0.45
		c0-0.144,0-0.292,0-0.443c0-0.152-0.005-0.32-0.013-0.505c-0.016-0.464-0.086-0.863-0.21-1.199s-0.294-0.612-0.51-0.828
		s-0.468-0.374-0.756-0.475C67.768,112.934,67.455,112.884,67.119,112.884z"/>
	<path fill="#FFFFFF" d="M72.639,115.476c-0.023,0.664-0.023,1.336,0,2.016c0.032,0.912,0.26,1.572,0.685,1.98
		c0.424,0.408,1.004,0.612,1.739,0.612c0.32,0,0.614-0.03,0.882-0.091c0.269-0.06,0.505-0.161,0.708-0.306
		c0.204-0.144,0.379-0.334,0.522-0.57c0.144-0.235,0.256-0.533,0.336-0.894c0.016-0.096,0.048-0.162,0.096-0.198
		c0.049-0.036,0.104-0.054,0.168-0.054h0.24c0.072,0,0.134,0.022,0.187,0.065c0.052,0.045,0.073,0.103,0.065,0.175
		c-0.016,0.288-0.084,0.584-0.204,0.888s-0.308,0.582-0.563,0.834s-0.584,0.46-0.984,0.624s-0.884,0.246-1.452,0.246
		c-0.544,0-1.012-0.082-1.403-0.246c-0.393-0.164-0.719-0.39-0.979-0.678s-0.454-0.63-0.582-1.026
		c-0.128-0.396-0.2-0.83-0.216-1.302c-0.017-0.328-0.024-0.68-0.024-1.057c0-0.375,0.008-0.735,0.024-1.079
		c0.016-0.464,0.088-0.896,0.216-1.297c0.128-0.399,0.322-0.743,0.582-1.031s0.586-0.515,0.979-0.679
		c0.392-0.163,0.859-0.245,1.403-0.245c0.568,0,1.052,0.082,1.452,0.245c0.4,0.164,0.729,0.372,0.984,0.624s0.443,0.53,0.563,0.834
		c0.12,0.305,0.188,0.601,0.204,0.889c0.008,0.071-0.014,0.13-0.065,0.174c-0.053,0.044-0.114,0.065-0.187,0.065h-0.24
		c-0.063,0-0.119-0.018-0.168-0.054c-0.048-0.036-0.08-0.102-0.096-0.198c-0.08-0.359-0.192-0.657-0.336-0.894
		s-0.318-0.426-0.522-0.57c-0.203-0.144-0.439-0.246-0.708-0.306c-0.268-0.06-0.562-0.09-0.882-0.09
		c-0.735,0-1.315,0.204-1.739,0.611C72.898,113.904,72.671,114.564,72.639,115.476z"/>
	<path fill="#FFFFFF" d="M85.07,119.964c0.184,0,0.276,0.092,0.276,0.275v0.181c0,0.176-0.093,0.264-0.276,0.264h-4.776
		c-0.176,0-0.264-0.088-0.264-0.264v-7.86c0-0.184,0.088-0.276,0.264-0.276h4.681c0.184,0,0.275,0.093,0.275,0.276v0.18
		c0,0.177-0.092,0.265-0.275,0.265h-4.188v3.06h3.924c0.185,0,0.276,0.092,0.276,0.276v0.18c0,0.176-0.092,0.264-0.276,0.264h-3.924
		v3.181H85.07z"/>
	<path fill="#FFFFFF" d="M90.195,112.284c0.84,0,1.51,0.2,2.01,0.601s0.75,1.008,0.75,1.824c0,0.647-0.158,1.162-0.475,1.542
		c-0.315,0.38-0.762,0.638-1.338,0.773l1.933,3.288c0.023,0.048,0.035,0.092,0.035,0.132c0,0.064-0.023,0.12-0.071,0.168
		s-0.104,0.072-0.168,0.072h-0.145c-0.136,0-0.233-0.032-0.294-0.096c-0.06-0.064-0.114-0.141-0.162-0.229l-1.907-3.228h-2.473
		v3.288c0,0.176-0.092,0.264-0.275,0.264h-0.217c-0.176,0-0.264-0.088-0.264-0.264v-7.86c0-0.184,0.088-0.276,0.264-0.276H90.195z
		 M87.891,116.412h2.244c1.376,0,2.064-0.567,2.064-1.703c0-1.137-0.688-1.704-2.064-1.704h-2.244V116.412z"/>
	<path fill="#FFFFFF" d="M101.331,118.668c-0.176,0-0.3-0.08-0.372-0.24l-2.292-4.512v6.504c0,0.176-0.088,0.264-0.264,0.264h-0.216
		c-0.185,0-0.276-0.088-0.276-0.264v-7.86c0-0.184,0.092-0.276,0.276-0.276h0.3c0.08,0,0.138,0.021,0.174,0.061
		s0.062,0.072,0.078,0.096l2.724,5.304l2.736-5.304c0.016-0.023,0.042-0.056,0.078-0.096s0.094-0.061,0.174-0.061h0.288
		c0.184,0,0.276,0.093,0.276,0.276v7.86c0,0.176-0.093,0.264-0.276,0.264h-0.216c-0.177,0-0.265-0.088-0.265-0.264v-6.504
		l-2.292,4.512c-0.071,0.16-0.195,0.24-0.372,0.24H101.331z"/>
	<path fill="#FFFFFF" d="M112.167,118.584h-4.248l-0.744,1.92c-0.017,0.032-0.044,0.069-0.084,0.113
		c-0.04,0.045-0.101,0.066-0.181,0.066h-0.239c-0.064,0-0.12-0.024-0.168-0.072c-0.049-0.048-0.072-0.104-0.072-0.168
		c0-0.04,0.008-0.084,0.023-0.132l3.036-7.788c0.032-0.08,0.074-0.14,0.126-0.18c0.053-0.04,0.126-0.061,0.223-0.061h0.407
		c0.097,0,0.17,0.021,0.223,0.061c0.052,0.04,0.094,0.1,0.126,0.18l3.036,7.788c0.016,0.048,0.023,0.092,0.023,0.132
		c0,0.064-0.023,0.12-0.071,0.168c-0.049,0.048-0.104,0.072-0.168,0.072h-0.24c-0.08,0-0.141-0.021-0.181-0.066
		c-0.04-0.044-0.067-0.081-0.084-0.113L112.167,118.584z M108.207,117.864h3.672l-1.836-4.728L108.207,117.864z M110.475,110.34
		c0.063-0.08,0.124-0.136,0.18-0.168c0.057-0.032,0.145-0.048,0.265-0.048h0.552c0.151,0,0.228,0.076,0.228,0.228
		c0,0.056-0.02,0.104-0.06,0.144l-1.308,1.068c-0.064,0.057-0.122,0.09-0.175,0.103c-0.052,0.012-0.118,0.018-0.197,0.018h-0.181
		c-0.128,0-0.191-0.063-0.191-0.192c0-0.063,0.02-0.115,0.06-0.155L110.475,110.34z"/>
	<path fill="#FFFFFF" d="M117.41,112.165c0.472,0,0.884,0.065,1.236,0.197c0.352,0.132,0.644,0.3,0.876,0.504
		c0.231,0.204,0.408,0.431,0.527,0.679c0.12,0.248,0.185,0.487,0.192,0.72c0,0.064-0.02,0.12-0.06,0.168s-0.104,0.072-0.192,0.072
		h-0.24c-0.04,0-0.09-0.017-0.149-0.048c-0.061-0.032-0.099-0.097-0.114-0.192c-0.048-0.4-0.258-0.73-0.63-0.99
		s-0.854-0.39-1.446-0.39c-0.296,0-0.568,0.028-0.815,0.084c-0.248,0.056-0.461,0.144-0.637,0.264s-0.313,0.271-0.414,0.45
		c-0.1,0.18-0.149,0.395-0.149,0.642c0,0.24,0.046,0.444,0.138,0.612s0.238,0.32,0.438,0.456c0.199,0.136,0.451,0.264,0.756,0.384
		c0.304,0.12,0.672,0.248,1.104,0.384c0.448,0.145,0.838,0.286,1.17,0.427c0.332,0.14,0.608,0.298,0.828,0.474
		s0.384,0.38,0.492,0.612c0.108,0.231,0.162,0.512,0.162,0.84c0,0.728-0.269,1.292-0.804,1.691c-0.536,0.4-1.272,0.601-2.208,0.601
		c-0.488,0-0.921-0.062-1.297-0.187c-0.376-0.123-0.693-0.285-0.953-0.485c-0.261-0.2-0.461-0.431-0.601-0.69
		s-0.214-0.525-0.222-0.798c0-0.063,0.023-0.12,0.072-0.168c0.048-0.048,0.107-0.072,0.18-0.072h0.24c0.079,0,0.14,0.024,0.18,0.072
		s0.067,0.104,0.084,0.168c0.024,0.168,0.084,0.338,0.18,0.51c0.097,0.173,0.238,0.326,0.427,0.462
		c0.188,0.137,0.422,0.248,0.701,0.336c0.28,0.089,0.616,0.133,1.009,0.133c0.783,0,1.355-0.143,1.716-0.427
		c0.359-0.283,0.54-0.666,0.54-1.146c0-0.24-0.053-0.442-0.156-0.606c-0.104-0.163-0.264-0.312-0.48-0.443
		c-0.216-0.132-0.487-0.259-0.815-0.378c-0.328-0.12-0.716-0.252-1.164-0.396c-0.432-0.136-0.802-0.273-1.11-0.414
		c-0.308-0.14-0.563-0.3-0.768-0.479c-0.204-0.181-0.354-0.389-0.45-0.624c-0.096-0.236-0.144-0.519-0.144-0.847
		c0-0.304,0.062-0.588,0.186-0.852s0.302-0.492,0.534-0.685c0.231-0.191,0.52-0.344,0.864-0.455
		C116.566,112.22,116.962,112.165,117.41,112.165z"/>
</g>
<line fill="none" stroke="#D6BE28" stroke-miterlimit="10" x1="24.476" y1="85.859" x2="70.976" y2="85.859"/>
</svg>
