<?xml version="1.0" encoding="utf-8"?>
<!-- Generator: Adobe Illustrator 15.0.0, SVG Export Plug-In . SVG Version: 6.00 Build 0)  -->
<!DOCTYPE svg PUBLIC "-//W3C//DTD SVG 1.1//EN" "http://www.w3.org/Graphics/SVG/1.1/DTD/svg11.dtd">
<svg version="1.1" id="Layer_1" xmlns="http://www.w3.org/2000/svg" xmlns:xlink="http://www.w3.org/1999/xlink" x="0px" y="0px"
	 width="409.664px" height="154.429px" viewBox="0 0 409.664 154.429" enable-background="new 0 0 409.664 154.429"
	 xml:space="preserve">
<g>
	<path fill="#879338" d="M159.892,24.213c3.264,0,9.104,1.374,9.104,5.252v2.372h-3.165v-1.374c0-2.027-3.433-3.054-5.867-3.054
		c-4.877,0-8.651,3.674-8.651,9.129c0,5.288,3.809,9.508,8.755,9.508c4.802,0,7.653-3.294,7.653-3.294l1.854,2.471
		c0,0-3.431,4.057-9.543,4.057c-7.252,0-12.29-5.598-12.29-12.741C147.743,29.536,152.959,24.213,159.892,24.213"/>
	<path fill="#879338" d="M180.184,31.07c4.878,0,7.487,3.636,7.487,8.132c0,0.445-0.108,1.38-0.108,1.38h-12.667
		c0.208,3.704,2.882,5.8,5.971,5.8c2.996,0,5.089-2.026,5.089-2.026l1.439,2.366c0,0-2.576,2.544-6.697,2.544
		c-5.495,0-9.236-3.948-9.236-9.098C171.462,34.642,175.242,31.07,180.184,31.07 M184.236,38.142
		c-0.106-2.884-1.923-4.43-4.086-4.43c-2.539,0-4.606,1.545-5.12,4.43H184.236z"/>
	<path fill="#879338" d="M191.682,35.101c0-0.513-0.278-0.753-0.758-0.753h-1.407v-2.853h3.19c1.482,0,2.2,0.656,2.2,1.923v0.652
		c0,0.551-0.066,0.996-0.066,0.996h0.066c0.687-1.512,2.748-3.981,6.524-3.981c4.121,0,5.974,2.232,5.974,6.658v7.517
		c0,0.518,0.273,0.759,0.751,0.759h1.411v2.848h-3.296c-1.549,0-2.195-0.648-2.195-2.197v-8.17c0-2.433-0.483-4.362-3.267-4.362
		c-2.674,0-4.801,1.755-5.488,4.257c-0.242,0.688-0.313,1.481-0.313,2.341v8.132h-3.327V35.101z"/>
	<path fill="#879338" d="M212.897,34.164h-2.269v-2.675h2.335v-4.775h3.263v4.775h4.152v2.675h-4.152v7.962
		c0,3.471,2.403,3.919,3.671,3.919c0.481,0,0.794-0.071,0.794-0.071v2.952c0,0-0.452,0.066-1.167,0.066
		c-2.197,0-6.627-0.684-6.627-6.486V34.164z"/>
	<path fill="#879338" d="M224.43,35.101c0-0.513-0.274-0.753-0.759-0.753h-1.404v-2.853h3.16c1.511,0,2.228,0.621,2.228,2.024v1.103
		c0,0.683-0.062,1.201-0.062,1.201h0.062c0.83-2.541,2.818-4.53,5.497-4.53c0.442,0,0.896,0.069,0.896,0.069v3.291
		c0,0-0.454-0.103-1-0.103c-2.127,0-4.086,1.516-4.876,4.086c-0.309,0.996-0.413,2.06-0.413,3.124v7.106h-3.329V35.101z"/>
	<path fill="#879338" d="M244.274,31.084c5.182,0,9.37,3.809,9.37,9.06c0,5.292-4.188,9.137-9.37,9.137
		c-5.185,0-9.34-3.845-9.34-9.137C234.934,34.893,239.089,31.084,244.274,31.084 M244.274,46.396c3.293,0,5.972-2.613,5.972-6.252
		c0-3.601-2.679-6.179-5.972-6.179c-3.263,0-5.941,2.578-5.941,6.179C238.333,43.784,241.011,46.396,244.274,46.396"/>
	<path fill="#879338" d="M266.825,27.583h-2.23V24.63h10.677c4.432,0,7.588,2.985,7.588,7.586c0,4.603-3.156,7.689-7.588,7.689
		h-5.011v8.96h-3.436V27.583z M274.72,36.955c2.85,0,4.599-1.819,4.599-4.738c0-2.917-1.749-4.633-4.561-4.633h-4.498v9.372H274.72z
		"/>
	<path fill="#879338" d="M286.122,35.101c0-0.513-0.277-0.753-0.762-0.753h-1.4v-2.853h3.158c1.511,0,2.229,0.621,2.229,2.024v1.103
		c0,0.683-0.066,1.201-0.066,1.201h0.066c0.823-2.541,2.818-4.53,5.495-4.53c0.439,0,0.89,0.069,0.89,0.069v3.291
		c0,0-0.45-0.103-0.996-0.103c-2.125,0-4.084,1.516-4.874,4.086c-0.312,0.996-0.411,2.06-0.411,3.124v7.106h-3.328V35.101z"/>
	<path fill="#879338" d="M299.167,35.101c0-0.525-0.279-0.763-0.759-0.763h-1.409v-2.848h3.263c1.548,0,2.198,0.645,2.198,2.205
		v11.569c0,0.505,0.278,0.741,0.758,0.741h1.404v2.85h-3.258c-1.547,0-2.197-0.645-2.197-2.187V35.101z M299.235,24.623h2.981v3.469
		h-2.981V24.623z"/>
	<path fill="#879338" d="M306.784,35.022c-0.202-0.515-0.511-0.684-1.065-0.684h-0.338v-2.853h1.714c1.544,0,2.128,0.376,2.645,1.75
		l3.74,9.989c0.348,0.963,0.619,2.268,0.619,2.268h0.066c0,0,0.273-1.305,0.621-2.268l3.703-9.989
		c0.521-1.374,1.136-1.75,2.648-1.75h1.614v2.853h-0.347c-0.585,0-0.927,0.169-1.129,0.684l-5.287,13.834h-3.846L306.784,35.022z"/>
	<path fill="#879338" d="M334.352,38.042h0.748V37.87c0-3.057-1.126-4.154-3.84-4.154c-0.823,0-2.848,0.208-2.848,1.339v0.996
		h-3.124v-1.712c0-2.853,4.323-3.267,6.008-3.267c5.632,0,7.139,2.953,7.139,6.798v7.38c0,0.515,0.271,0.757,0.762,0.757h1.4v2.852
		h-3.123c-1.54,0-2.157-0.761-2.157-1.992c0-0.586,0.066-1.031,0.066-1.031h-0.066c0,0-1.374,3.434-5.532,3.434
		c-2.985,0-5.901-1.821-5.901-5.288C323.883,38.384,331.433,38.042,334.352,38.042 M330.508,46.591c2.81,0,4.632-2.953,4.632-5.526
		V40.48h-0.854c-2.51,0-7.042,0.136-7.042,3.331C327.244,45.213,328.309,46.591,330.508,46.591"/>
	<path fill="#879338" d="M350.007,31.072c4.011,0,5.356,2.677,5.356,2.677h0.063c0,0-0.063-0.513-0.063-1.168v-4.358
		c0-0.518-0.278-0.761-0.754-0.761h-1.409v-2.846h3.294c1.546,0,2.198,0.654,2.198,2.197V45.25c0,0.515,0.277,0.751,0.751,0.751
		h1.415v2.855h-3.197c-1.516,0-2.128-0.687-2.128-1.857c0-0.513,0.035-0.891,0.035-0.891h-0.075c0,0-1.435,3.16-5.693,3.16
		c-4.702,0-7.658-3.711-7.658-9.1C342.142,34.642,345.405,31.072,350.007,31.072 M355.468,40.131c0-3.086-1.615-6.175-4.95-6.175
		c-2.713,0-4.975,2.265-4.975,6.211c0,3.778,2.029,6.216,4.909,6.216C353.025,46.384,355.468,44.563,355.468,40.131"/>
	<path fill="#879338" d="M371.801,31.084c5.188,0,9.37,3.809,9.37,9.06c0,5.292-4.182,9.137-9.37,9.137
		c-5.183,0-9.335-3.845-9.335-9.137C362.466,34.893,366.619,31.084,371.801,31.084 M371.801,46.396c3.294,0,5.977-2.613,5.977-6.252
		c0-3.601-2.683-6.179-5.977-6.179c-3.263,0-5.937,2.578-5.937,6.179C365.865,43.784,368.539,46.396,371.801,46.396"/>
	<path fill="#879338" d="M154.28,69.089c4.017,0,5.355,2.682,5.355,2.682h0.065c0,0-0.065-0.52-0.065-1.172v-4.354
		c0-0.52-0.276-0.757-0.75-0.757h-1.412v-2.854h3.296c1.548,0,2.197,0.656,2.197,2.196v18.439c0,0.512,0.276,0.755,0.757,0.755h1.41
		v2.852h-3.196c-1.509,0-2.126-0.691-2.126-1.854c0-0.514,0.034-0.893,0.034-0.893h-0.067c0,0-1.447,3.157-5.706,3.157
		c-4.697,0-7.654-3.706-7.654-9.098C146.417,72.66,149.681,69.089,154.28,69.089 M159.74,78.152c0-3.09-1.611-6.177-4.945-6.177
		c-2.709,0-4.979,2.267-4.979,6.212c0,3.779,2.03,6.215,4.908,6.215C157.3,84.402,159.74,82.582,159.74,78.152"/>
	<path fill="#879338" d="M175.015,69.09c4.878,0,7.488,3.642,7.488,8.138c0,0.446-0.108,1.374-0.108,1.374h-12.666
		c0.199,3.708,2.877,5.804,5.969,5.804c2.992,0,5.086-2.027,5.086-2.027l1.444,2.367c0,0-2.577,2.541-6.698,2.541
		c-5.495,0-9.233-3.947-9.233-9.098C166.297,72.66,170.071,69.09,175.015,69.09 M179.068,76.164
		c-0.108-2.883-1.922-4.432-4.089-4.432c-2.539,0-4.601,1.549-5.114,4.432H179.068z"/>
	<path fill="#879338" d="M195.066,65.585h-2.233v-2.951h10.571c4.253,0,7.248,2.679,7.248,7.106c0,4.046-2.646,6.041-4.357,6.419
		v0.07c0,0,0.609,0.307,1.025,1.099l2.911,5.799c0.352,0.722,0.896,0.793,1.722,0.793h0.448v2.951h-1.683
		c-1.889,0-2.577-0.239-3.362-1.819l-3.295-6.524c-0.616-1.132-1.065-1.305-2.404-1.305H198.5v9.647h-3.433V65.585z M202.959,74.271
		c2.607,0,4.154-1.679,4.154-4.395c0-2.712-1.547-4.292-4.088-4.292H198.5v8.687H202.959z"/>
	<path fill="#879338" d="M223.627,76.061h0.755v-0.173c0-3.053-1.134-4.152-3.848-4.152c-0.825,0-2.844,0.208-2.844,1.337v1h-3.129
		v-1.718c0-2.85,4.321-3.261,6.008-3.261c5.63,0,7.14,2.953,7.14,6.794v7.384c0,0.513,0.271,0.755,0.757,0.755h1.409v2.851h-3.129
		c-1.543,0-2.16-0.755-2.16-1.995c0-0.584,0.069-1.025,0.069-1.025h-0.069c0,0-1.369,3.432-5.53,3.432
		c-2.982,0-5.901-1.821-5.901-5.288C213.155,76.403,220.706,76.061,223.627,76.061 M219.784,84.614c2.807,0,4.632-2.955,4.632-5.532
		v-0.581h-0.858c-2.506,0-7.044,0.136-7.044,3.331C216.513,83.239,217.586,84.614,219.784,84.614"/>
	<path fill="#879338" d="M238.833,69.089c4.013,0,5.357,2.682,5.357,2.682h0.067c0,0-0.067-0.52-0.067-1.172v-4.354
		c0-0.52-0.277-0.757-0.757-0.757h-1.407v-2.854h3.292c1.547,0,2.195,0.656,2.195,2.196v18.439c0,0.512,0.281,0.755,0.761,0.755
		h1.405v2.852h-3.189c-1.51,0-2.133-0.691-2.133-1.854c0-0.514,0.04-0.893,0.04-0.893h-0.067c0,0-1.446,3.157-5.703,3.157
		c-4.7,0-7.657-3.706-7.657-9.098C230.969,72.66,234.236,69.089,238.833,69.089 M244.292,78.152c0-3.09-1.616-6.177-4.945-6.177
		c-2.712,0-4.978,2.267-4.978,6.212c0,3.779,2.028,6.215,4.907,6.215C241.856,84.402,244.292,82.582,244.292,78.152"/>
	<path fill="#879338" d="M252.7,73.1c0-0.505-0.273-0.761-0.757-0.761h-1.405v-2.846h3.263c1.546,0,2.196,0.662,2.196,2.203v11.567
		c0,0.511,0.271,0.765,0.755,0.765h1.409v2.846h-3.264c-1.541,0-2.197-0.662-2.197-2.203V73.1z M252.77,62.625h2.985v3.469h-2.985
		V62.625z"/>
	<path fill="#879338" d="M268.765,69.083c5.183,0,9.376,3.812,9.376,9.065c0,5.288-4.193,9.131-9.376,9.131
		c-5.181,0-9.337-3.844-9.337-9.131C259.428,72.896,263.584,69.083,268.765,69.083 M268.765,84.395c3.298,0,5.975-2.605,5.975-6.247
		c0-3.603-2.677-6.181-5.975-6.181c-3.259,0-5.941,2.578-5.941,6.181C262.824,81.79,265.506,84.395,268.765,84.395"/>
	<path fill="#879338" d="M281.569,72.166h-2.267v-2.673h2.335V64.72h3.263v4.773h4.154v2.673H284.9v7.966
		c0,3.467,2.399,3.912,3.679,3.912c0.476,0,0.782-0.062,0.782-0.062v2.951c0,0-0.444,0.064-1.165,0.064
		c-2.195,0-6.627-0.687-6.627-6.485V72.166z"/>
	<path fill="#879338" d="M299.387,69.09c4.876,0,7.483,3.642,7.483,8.138c0,0.446-0.105,1.374-0.105,1.374h-12.664
		c0.2,3.708,2.879,5.804,5.972,5.804c2.987,0,5.08-2.027,5.08-2.027l1.443,2.367c0,0-2.575,2.541-6.693,2.541
		c-5.493,0-9.235-3.947-9.235-9.098C290.667,72.66,294.449,69.09,299.387,69.09 M303.44,76.164c-0.101-2.883-1.926-4.432-4.09-4.432
		c-2.539,0-4.599,1.549-5.109,4.432H303.44z"/>
	<path fill="#879338" d="M310.442,73.1c0-0.513-0.273-0.751-0.755-0.751h-1.407v-2.85h3.16c1.506,0,2.23,0.615,2.23,2.022v1.099
		c0,0.687-0.066,1.202-0.066,1.202h0.066c0.822-2.541,2.818-4.531,5.489-4.531c0.45,0,0.895,0.066,0.895,0.066v3.298
		c0,0-0.444-0.103-0.997-0.103c-2.124,0-4.083,1.512-4.875,4.086c-0.307,0.994-0.415,2.06-0.415,3.125v7.105h-3.325V73.1z"/>
	<path fill="#879338" d="M330.629,76.061h0.752v-0.173c0-3.053-1.132-4.152-3.846-4.152c-0.823,0-2.85,0.208-2.85,1.337v1h-3.127
		v-1.718c0-2.85,4.331-3.261,6.01-3.261c5.632,0,7.138,2.953,7.138,6.794v7.384c0,0.513,0.283,0.755,0.763,0.755h1.409v2.851h-3.127
		c-1.545,0-2.162-0.755-2.162-1.995c0-0.584,0.065-1.025,0.065-1.025h-0.065c0,0-1.375,3.432-5.532,3.432
		c-2.982,0-5.907-1.821-5.907-5.288C320.15,76.403,327.708,76.061,330.629,76.061 M326.779,84.614c2.818,0,4.64-2.955,4.64-5.532
		v-0.581h-0.86c-2.506,0-7.038,0.136-7.038,3.331C323.52,83.239,324.583,84.614,326.779,84.614"/>
	<path fill="#879338" d="M339.622,73.11c0-0.518-0.277-0.759-0.763-0.759h-1.405v-2.848h3.123c1.551,0,2.132,0.656,2.132,1.749
		c0,0.518-0.031,0.928-0.031,0.928h0.065c0,0,1.44-3.086,5.77-3.086c4.663,0,7.654,3.706,7.654,9.095
		c0,5.53-3.364,9.096-7.896,9.096c-3.844,0-5.319-2.778-5.319-2.778h-0.066c0,0,0.066,0.619,0.066,1.51v7.724h-3.329V73.11z
		 M347.76,84.436c2.743,0,5.011-2.266,5.011-6.214c0-3.777-2.03-6.213-4.909-6.213c-2.583,0-5.023,1.819-5.023,6.25
		C342.838,81.349,344.533,84.436,347.76,84.436"/>
	<path fill="#879338" d="M359.671,73.1c0-0.505-0.277-0.761-0.757-0.761h-1.409v-2.846h3.258c1.551,0,2.203,0.662,2.203,2.203
		v11.567c0,0.511,0.268,0.765,0.753,0.765h1.403v2.846h-3.259c-1.545,0-2.192-0.662-2.192-2.203V73.1z M359.738,62.625h2.98v3.469
		h-2.98V62.625z"/>
	<path fill="#879338" d="M376.904,76.061h0.753v-0.173c0-3.053-1.132-4.152-3.84-4.152c-0.828,0-2.854,0.208-2.854,1.337v1h-3.127
		v-1.718c0-2.85,4.329-3.261,6.012-3.261c5.628,0,7.142,2.953,7.142,6.794v7.384c0,0.513,0.269,0.755,0.753,0.755h1.406v2.851
		h-3.124c-1.545,0-2.162-0.755-2.162-1.995c0-0.584,0.071-1.025,0.071-1.025h-0.071c0,0-1.373,3.432-5.526,3.432
		c-2.986,0-5.905-1.821-5.905-5.288C366.431,76.403,373.988,76.061,376.904,76.061 M373.06,84.614c2.812,0,4.637-2.955,4.637-5.532
		v-0.581h-0.865c-2.504,0-7.031,0.136-7.031,3.331C369.8,83.239,370.857,84.614,373.06,84.614"/>
	<path fill="#879338" d="M192.043,106.119h-1.965v-2.602h9.317c3.755,0,6.386,2.359,6.386,6.262c0,3.568-2.327,5.326-3.842,5.661
		v0.061c0,0,0.543,0.271,0.908,0.97l2.571,5.115c0.304,0.634,0.79,0.694,1.511,0.694h0.4v2.602h-1.486
		c-1.667,0-2.271-0.213-2.966-1.603l-2.904-5.75c-0.543-0.998-0.939-1.152-2.121-1.152h-2.784v8.505h-3.026V106.119z
		 M199.004,113.777c2.299,0,3.666-1.484,3.666-3.875c0-2.394-1.366-3.783-3.605-3.783h-3.995v7.658H199.004z"/>
	<path fill="#879338" d="M210.351,112.745c0-0.452-0.239-0.667-0.665-0.667h-1.24v-2.508h2.91c1.357,0,1.935,0.573,1.935,1.935
		v10.198c0,0.456,0.242,0.667,0.667,0.667h1.238v2.512h-2.877c-1.388,0-1.968-0.577-1.968-1.94V112.745z M212.618,103.514h2.972
		l-2.876,3.847h-2.302L212.618,103.514z"/>
	<path fill="#879338" d="M225.333,109.193c4.574,0,8.262,3.362,8.262,7.988c0,4.663-3.688,8.053-8.262,8.053
		c-4.57,0-8.231-3.39-8.231-8.053C217.101,112.555,220.762,109.193,225.333,109.193 M225.333,122.691
		c2.906,0,5.266-2.302,5.266-5.51c0-3.177-2.359-5.447-5.266-5.447c-2.876,0-5.235,2.271-5.235,5.447
		C220.097,120.389,222.457,122.691,225.333,122.691"/>
	<path fill="#879338" d="M254.569,103.143c2.877,0,8.016,1.212,8.016,4.633v2.086h-2.777v-1.207c0-1.786-3.028-2.697-5.178-2.697
		c-4.3,0-7.623,3.237-7.623,8.051c0,4.661,3.354,8.387,7.715,8.387c4.236,0,6.742-2.904,6.742-2.904l1.64,2.175
		c0,0-3.024,3.574-8.415,3.574c-6.383,0-10.834-4.937-10.834-11.231C243.854,107.834,248.453,103.143,254.569,103.143"/>
	<path fill="#879338" d="M266.551,112.741c0-0.454-0.248-0.667-0.667-0.667h-1.238v-2.51h2.875c1.39,0,1.963,0.575,1.963,1.874v7.27
		c0,2.111,0.428,3.81,2.848,3.81c3.147,0,4.995-2.755,4.995-5.782v-7.171h2.937v12.133c0,0.458,0.242,0.667,0.667,0.667h1.241v2.514
		h-2.818c-1.304,0-1.935-0.606-1.935-1.692v-0.578c0-0.481,0.024-0.879,0.024-0.879h-0.056c-0.641,1.517-2.606,3.512-5.633,3.512
		c-3.445,0-5.203-1.817-5.203-5.87V112.741z"/>
	<path fill="#879338" d="M293.182,115.349h0.669v-0.15c0-2.689-0.999-3.66-3.396-3.66c-0.724,0-2.509,0.177-2.509,1.18v0.877h-2.757
		v-1.518c0-2.512,3.814-2.872,5.297-2.872c4.967,0,6.295,2.602,6.295,5.993v6.504c0,0.456,0.244,0.667,0.667,0.667h1.242v2.512
		h-2.758c-1.363,0-1.905-0.665-1.905-1.753c0-0.517,0.061-0.909,0.061-0.909h-0.061c0,0-1.209,3.025-4.869,3.025
		c-2.635,0-5.208-1.602-5.208-4.659C283.951,115.649,290.609,115.349,293.182,115.349 M289.79,122.886
		c2.485,0,4.088-2.602,4.088-4.876v-0.512h-0.759c-2.207,0-6.201,0.118-6.201,2.937C286.917,121.673,287.854,122.886,289.79,122.886
		"/>
	<path fill="#879338" d="M301.864,112.741c0-0.454-0.241-0.667-0.667-0.667h-1.24v-2.51h2.785c1.332,0,1.972,0.542,1.972,1.787
		v0.969c0,0.603-0.066,1.055-0.066,1.055h0.066c0.722-2.24,2.477-3.992,4.839-3.992c0.394,0,0.789,0.062,0.789,0.062v2.902
		c0,0-0.396-0.092-0.881-0.092c-1.874,0-3.601,1.334-4.301,3.603c-0.265,0.877-0.356,1.815-0.356,2.753v6.267h-2.939V112.741z"/>
	<path fill="#879338" d="M313.7,111.923h-1.995v-2.365h2.05v-4.203h2.881v4.203h3.662v2.365h-3.662v7.021
		c0,3.054,2.117,3.45,3.237,3.45c0.425,0,0.698-0.061,0.698-0.061v2.602c0,0-0.395,0.059-1.03,0.059
		c-1.935,0-5.841-0.604-5.841-5.717V111.923z"/>
	<path fill="#879338" d="M330.706,109.193c4.576,0,8.264,3.362,8.264,7.988c0,4.663-3.688,8.053-8.264,8.053
		c-4.567,0-8.231-3.39-8.231-8.053C322.474,112.555,326.138,109.193,330.706,109.193 M330.706,122.691
		c2.91,0,5.269-2.302,5.269-5.51c0-3.177-2.358-5.447-5.269-5.447c-2.874,0-5.234,2.271-5.234,5.447
		C325.471,120.389,327.832,122.691,330.706,122.691"/>
	<path fill="#879338" d="M100.667,97.177c0.425-8.371,12.328-34.701,20.091-38.371c7.766-3.669,7.965-10.46,7.965-10.46
		s-6.221-4.126-7.448-3.91c-1.239,0.223-1.086-22.622-4.733-22.359c-3.65,0.268-8.995,3.889-8.995,3.889l-4.095-2.205l-4.153,0.994
		l-0.979,3.869l-4.566-7.094c0,0-2.22-6.747-5.206-5.582c-2.98,1.172-4.007-2.761-5.078-1.593
		c-1.675,1.808-2.611,8.822-2.897,10.785c-0.247,1.645,0.451,6.555,0.451,6.555s-2.146-9.947-5.563-11.253
		c-3.423-1.308-5.445-1.206-5.445-1.206s-0.042-2.414-1.611-2.647c-1.576-0.226-5.401,1.213-5.401,1.213s-3.858,0.349-4.836,2.899
		s1.43,5.754-0.939,8.214c-2.37,2.458-3.118,1.233-4.519,2.093c-1.393,0.864-4.16,3.211-4.699,7.285
		c-0.496,3.778,1.489,8.635,2.845,10.528c0.959,1.328,8.161,12.275,8.161,12.275s-3.236-1.091-5.534-1.827
		c-2.301-0.744-4.927-1.201-7.675-1.604c-2.754-0.404-8.667-1.343-13.399-0.323c-4.181,0.907-8.257,2.306-8.493,3.873
		c-0.229,1.571,2.92,4.321-1.039,8.444c-2.2,2.293,2.096,7.537,3.041,9.28c0.949,1.742,6.562,1.77,4.985,4.344
		c-1.593,2.578-5.298,3.231-6.429,5.475c-1.13,2.234-3.329,3.519-2.316,4.875c0.998,1.347,0.711,3.311,4.287,6.247
		c0.103,0.086,0.192,0.14,0.287,0.217c-1.506,1.332-2.83,2.718-3.186,3.748c-0.521,1.501,3.437,0.552,3.81,3.725
		c0.392,3.18,7.376,1.939,7.376,1.939l8.42,0.671l-2.957,2.687l1.097,4.13l3.877,2.562c0,0-0.656,6.425,0.834,9.763
		c1.489,3.346,14.788-4.49,15.173-3.3c0.397,1.189,6.966,4.713,6.966,4.713s2.706-3.93,5.665-11.995
		c1.756-4.765,6.8-7.725,7.979-8.331c3.45-4.084,11.042-11.091,14.203-8.714c3.976,2.997,21.141,17.16,21.141,17.16l4.489,2.183
		l0.453-3.061C122.073,117.975,100.235,105.529,100.667,97.177"/>
</g>
</svg>
