<?xml version="1.0" encoding="utf-8"?>
<!-- Generator: Adobe Illustrator 15.0.0, SVG Export Plug-In . SVG Version: 6.00 Build 0)  -->
<!DOCTYPE svg PUBLIC "-//W3C//DTD SVG 1.1//EN" "http://www.w3.org/Graphics/SVG/1.1/DTD/svg11.dtd">
<svg version="1.1" id="Layer_1" xmlns="http://www.w3.org/2000/svg" xmlns:xlink="http://www.w3.org/1999/xlink" x="0px" y="0px"
	 width="640px" height="640px" viewBox="0 0 640 640" enable-background="new 0 0 640 640" xml:space="preserve">
<g>
	<circle fill="#333333" cx="329.159" cy="315.773" r="243.997"/>
</g>
<path fill="#FFFFFF" d="M328.463,63.525c-139.635,0-252.859,113.225-252.859,252.874c0,139.682,113.224,252.844,252.859,252.844
	c139.665,0,252.875-113.162,252.875-252.844C581.338,176.75,468.128,63.525,328.463,63.525 M382.637,316.495h-35.432v126.326
	h-52.516V316.495H269.73v-44.611h24.959v-28.896c0-20.704,9.834-53.025,52.994-53.025l38.905,0.159v43.336h-28.243
	c-4.605,0-11.141,2.279-11.141,12.161v26.265h40.037L382.637,316.495z"/>
</svg>
