<?xml version="1.0" encoding="utf-8"?>
<!-- Generator: Adobe Illustrator 15.0.0, SVG Export Plug-In . SVG Version: 6.00 Build 0)  -->
<!DOCTYPE svg PUBLIC "-//W3C//DTD SVG 1.1//EN" "http://www.w3.org/Graphics/SVG/1.1/DTD/svg11.dtd">
<svg version="1.1" id="Layer_1" xmlns="http://www.w3.org/2000/svg" xmlns:xlink="http://www.w3.org/1999/xlink" x="0px" y="0px"
	 width="640px" height="640px" viewBox="0 0 640 640" enable-background="new 0 0 640 640" xml:space="preserve">
<g>
	<path fill="#FFFFFF" d="M574.879,312.2c0,140.616-113.947,254.562-254.594,254.562c-140.584,0-254.562-113.946-254.562-254.562
		c0-140.601,113.979-254.563,254.562-254.563C460.932,57.637,574.879,171.6,574.879,312.2"/>
	<path fill-rule="evenodd" clip-rule="evenodd" fill="#333333" d="M230.029,387.192c-8.555-2.789-14.352-8.461-17.424-16.953
		c-7.553-20.777-9.777-107.664,4.764-124.774c4.951-5.86,11.344-9.292,18.99-10.107c39.174-4.215,160.328-3.604,174.305,1.426
		c8.15,2.93,13.977,8.289,17.111,16.484c8.273,21.482,8.588,99.579-1.064,120.292c-2.633,5.61-6.895,9.559-12.316,12.41
		C399.791,393.649,249.271,393.523,230.029,387.192 M292.332,346.453c23.533-12.207,46.881-24.303,70.574-36.572
		c-23.693-12.379-47.07-24.585-70.574-36.871V346.453z"/>
</g>
</svg>
