<?xml version="1.0" encoding="utf-8"?>
<!-- Generator: Adobe Illustrator 15.0.0, SVG Export Plug-In . SVG Version: 6.00 Build 0)  -->
<!DOCTYPE svg PUBLIC "-//W3C//DTD SVG 1.1//EN" "http://www.w3.org/Graphics/SVG/1.1/DTD/svg11.dtd">
<svg version="1.1" id="Layer_1" xmlns="http://www.w3.org/2000/svg" xmlns:xlink="http://www.w3.org/1999/xlink" x="0px" y="0px"
	 width="640px" height="640px" viewBox="0 0 640 640" enable-background="new 0 0 640 640" xml:space="preserve">
<g>
	<path fill="#333333" stroke="#FFFFFF" stroke-width="16.1985" stroke-miterlimit="10" d="M323.188,64.342
		c-140.342,0-254.57,113.18-254.57,252.491c0,55.228,18.154,106.41,48.629,148.022l-31.909,93.874l97.857-31.139
		c40.184,26.427,88.325,41.857,139.993,41.857c140.408,0,254.637-113.355,254.637-252.615
		C577.824,177.557,463.596,64.342,323.188,64.342z"/>
	<path fill="#FFFFFF" d="M476.164,385.992c-1.92-3.072-6.842-4.853-14.312-8.623c-7.401-3.597-43.848-21.453-50.621-23.915
		c-6.912-2.461-11.802-3.702-16.759,3.701c-4.957,7.366-19.13,23.984-23.529,28.837c-4.295,4.922-8.586,5.586-16.127,1.852
		c-7.333-3.702-31.281-11.418-59.56-36.553c-22.096-19.516-36.97-43.604-41.332-50.917c-4.295-7.455-0.49-11.329,3.246-15.048
		c3.386-3.316,7.507-8.587,11.137-12.899c3.699-4.311,4.989-7.382,7.4-12.323c2.513-4.836,1.255-9.165-0.626-12.865
		c-1.784-3.648-16.621-39.921-22.833-54.669c-6.214-14.732-12.429-12.272-16.756-12.272c-4.225,0-9.219-0.627-14.141-0.627
		c-4.991,0-13.023,1.85-19.863,9.181c-6.705,7.418-25.904,25.275-25.904,61.443c0,36.272,26.531,71.218,30.233,76.157
		c3.771,4.94,51.353,81.674,126.829,111.174c75.408,29.465,75.408,19.688,89.061,18.468c13.614-1.292,43.916-17.839,50.095-35.085
		C478.014,403.83,478.014,389.1,476.164,385.992z"/>
</g>
</svg>
