<?xml version="1.0" encoding="utf-8"?>
<!-- Generator: Adobe Illustrator 15.0.0, SVG Export Plug-In . SVG Version: 6.00 Build 0)  -->
<!DOCTYPE svg PUBLIC "-//W3C//DTD SVG 1.1//EN" "http://www.w3.org/Graphics/SVG/1.1/DTD/svg11.dtd">
<svg version="1.1" id="Layer_1" xmlns="http://www.w3.org/2000/svg" xmlns:xlink="http://www.w3.org/1999/xlink" x="0px" y="0px"
	 width="640px" height="640px" viewBox="0 0 640 640" enable-background="new 0 0 640 640" xml:space="preserve">
<g>
	<path fill="#FFFFFF" d="M580.299,317.496c0,142.497-115.531,258.042-258.043,258.042c-142.496,0-258.025-115.546-258.025-258.042
		C64.23,175,179.76,59.47,322.256,59.47C464.768,59.47,580.299,175,580.299,317.496z"/>
	<g>
		<path fill="#333333" d="M443.521,256.104c-1.646-16.218-7.898-30.571-19.947-42.072c-12.678-12.097-28.189-17.456-45.189-18.364
			c-28.973-1.551-97.777-2.57-121.924,1.379c-27.594,4.481-45.707,20.605-53.338,47.87c-5.861,20.965-4.701,117.646-1.27,138.391
			c4.67,28.331,21.42,46.507,49.531,53.746c19.445,5.014,114.98,4.355,136.432,0.908c28.377-4.574,46.617-21.247,53.996-49.295
			C447.453,367.137,445.48,275.518,443.521,256.104z M420.832,379.265c-3.307,21.561-17.598,34.88-39.221,37.262
			c-19.9,2.162-108.713,3.384-127.156-1.786c-17.627-4.921-27.719-17.08-30.648-34.818c-2.805-16.985-3.494-101.708-0.062-124.413
			c3.273-21.342,17.549-34.661,39.062-37.058c21.875-2.46,100.441-2.727,121.344,0.469c21.498,3.322,34.832,17.628,37.166,39.299
			C423.527,278.464,424.139,357.547,420.832,379.265z M322.271,254.302c-34.91-0.015-63.209,28.252-63.225,63.163
			s28.25,63.21,63.162,63.272c34.896,0,63.209-28.299,63.242-63.194C385.467,282.632,357.168,254.333,322.271,254.302z
			 M321.85,358.361c-22.58-0.219-40.725-18.693-40.506-41.257c0.189-22.579,18.662-40.724,41.258-40.521
			c22.562,0.204,40.676,18.694,40.473,41.241C362.871,340.404,344.428,358.55,321.85,358.361z M402.75,251.905
			c-0.018,8.179-6.676,14.792-14.84,14.775c-8.18-0.016-14.76-6.675-14.76-14.839c0.016-8.179,6.676-14.775,14.838-14.76
			C396.168,237.098,402.75,243.741,402.75,251.905z"/>
		<path fill="#333333" d="M443.521,256.104c-1.646-16.218-7.898-30.571-19.947-42.072c-12.678-12.097-28.189-17.456-45.189-18.364
			c-28.973-1.551-97.777-2.57-121.924,1.379c-27.594,4.481-45.707,20.605-53.338,47.87c-5.861,20.965-4.701,117.646-1.27,138.391
			c4.67,28.331,21.42,46.507,49.531,53.746c19.445,5.014,114.98,4.355,136.432,0.908c28.377-4.574,46.617-21.247,53.996-49.295
			C447.453,367.137,445.48,275.518,443.521,256.104z M420.832,379.265c-3.307,21.561-17.598,34.88-39.221,37.262
			c-19.9,2.162-108.713,3.384-127.156-1.786c-17.627-4.921-27.719-17.08-30.648-34.818c-2.805-16.985-3.494-101.708-0.062-124.413
			c3.273-21.342,17.549-34.661,39.062-37.058c21.875-2.46,100.441-2.727,121.344,0.469c21.498,3.322,34.832,17.628,37.166,39.299
			C423.527,278.464,424.139,357.547,420.832,379.265z M322.271,254.302c-34.91-0.015-63.209,28.252-63.225,63.163
			s28.25,63.21,63.162,63.272c34.896,0,63.209-28.299,63.242-63.194C385.467,282.632,357.168,254.333,322.271,254.302z
			 M321.85,358.361c-22.58-0.219-40.725-18.693-40.506-41.257c0.189-22.579,18.662-40.724,41.258-40.521
			c22.562,0.204,40.676,18.694,40.473,41.241C362.871,340.404,344.428,358.55,321.85,358.361z M402.75,251.905
			c-0.018,8.179-6.676,14.792-14.84,14.775c-8.18-0.016-14.76-6.675-14.76-14.839c0.016-8.179,6.676-14.775,14.838-14.76
			C396.168,237.098,402.75,243.741,402.75,251.905z"/>
	</g>
</g>
</svg>
